<mxfile host="www.draw.io" modified="2020-01-25T14:58:42.628Z" agent="Mozilla/5.0 (Windows NT 10.0; WOW64) AppleWebKit/537.36 (KHTML, like Gecko) Chrome/70.0.3538.25 Safari/537.36 Core/1.70.3741.400 QQBrowser/10.5.3863.400" etag="eQvEdOIh8DgX4sV5-gw4" version="12.5.8" type="github" pages="5">
  <diagram id="l67QaHX2Np-R1ESFJD7S" name="系统层图">
    <mxGraphModel dx="1422" dy="770" grid="1" gridSize="10" guides="1" tooltips="1" connect="1" arrows="1" fold="1" page="1" pageScale="1" pageWidth="827" pageHeight="1169" math="0" shadow="0">
      <root>
        <mxCell id="0"/>
        <mxCell id="1" parent="0"/>
        <object label="&lt;div style=&quot;text-align: left&quot;&gt;网管系统&lt;/div&gt;&lt;div style=&quot;text-align: left&quot;&gt;[web网管]&lt;/div&gt;" placeholders="1" c4Name="name" c4Type="ExecutionEnvironment" c4Application="applicationAndVersion" id="wdtBWJ74mepizvMGTZ-Q-7">
          <mxCell style="rounded=1;whiteSpace=wrap;html=1;labelBackgroundColor=none;fillColor=#ffffff;fontColor=#000000;align=left;arcSize=3;strokeColor=#000000;verticalAlign=bottom;" parent="1" vertex="1">
            <mxGeometry x="140" y="330" width="590" height="410" as="geometry"/>
            <C4ExecutionEnvironment as="c4"/>
          </mxCell>
        </object>
        <object label="&lt;div&gt;前端WEB&lt;/div&gt;&lt;div&gt;[Software System]&lt;/div&gt;&lt;div&gt;&lt;br&gt;&lt;/div&gt;&lt;div&gt;web方式的UI交互界面&lt;/div&gt;" placeholders="1" c4Name="name" c4Type="SoftwareSystem" c4Description="Beschreibung" id="wdtBWJ74mepizvMGTZ-Q-4">
          <mxCell style="rounded=1;whiteSpace=wrap;html=1;labelBackgroundColor=none;fillColor=#dae8fc;fontColor=#000000;align=center;arcSize=7;strokeColor=#6c8ebf;" parent="1" vertex="1">
            <mxGeometry x="170" y="370" width="160" height="110" as="geometry"/>
            <C4SoftwareSystem as="c4"/>
          </mxCell>
        </object>
        <mxCell id="wdtBWJ74mepizvMGTZ-Q-9" value="" style="group;rounded=0;labelBackgroundColor=none;fillColor=none;fontColor=#000000;align=center;html=1;" parent="1" vertex="1" connectable="0">
          <mxGeometry x="190" y="150" width="140" height="140" as="geometry"/>
          <C4Person as="c4"/>
        </mxCell>
        <object label="&lt;div&gt;设备使用人员&amp;nbsp;&lt;/div&gt;&lt;div&gt;[Person]&lt;/div&gt;&lt;div&gt;浏览器访问&lt;/div&gt;" placeholders="1" c4Name="name" c4Type="body" c4Description="Beschreibung" id="wdtBWJ74mepizvMGTZ-Q-10">
          <mxCell style="rounded=1;whiteSpace=wrap;html=1;labelBackgroundColor=none;fillColor=#dae8fc;fontColor=#000000;align=center;arcSize=33;strokeColor=#6c8ebf;" parent="wdtBWJ74mepizvMGTZ-Q-9" vertex="1">
            <mxGeometry y="54.44444444444444" width="140" height="85.55555555555556" as="geometry"/>
            <C4Person as="c4"/>
          </mxCell>
        </object>
        <mxCell id="wdtBWJ74mepizvMGTZ-Q-11" value="" style="ellipse;whiteSpace=wrap;html=1;aspect=fixed;rounded=0;labelBackgroundColor=none;fillColor=#dae8fc;fontSize=12;fontColor=#000000;align=center;strokeColor=#6c8ebf;" parent="wdtBWJ74mepizvMGTZ-Q-9" vertex="1">
          <mxGeometry x="35" width="62.22222222222222" height="62.22222222222222" as="geometry"/>
          <C4Person as="c4"/>
        </mxCell>
        <object label="&lt;div style=&quot;text-align: left&quot;&gt;&lt;div style=&quot;text-align: center&quot;&gt;&lt;b&gt;访问&lt;/b&gt;&lt;/div&gt;&lt;div style=&quot;text-align: center&quot;&gt;[http/https]&lt;/div&gt;&lt;/div&gt;" c4Type="Relationship" c4Description="访问" c4Technology="http/https" id="wdtBWJ74mepizvMGTZ-Q-16">
          <mxCell style="edgeStyle=none;rounded=0;html=1;jettySize=auto;orthogonalLoop=1;strokeColor=#A8A8A8;strokeWidth=2;fontColor=#000000;jumpStyle=none;dashed=1;exitX=0.5;exitY=1;exitDx=0;exitDy=0;entryX=0.544;entryY=-0.027;entryDx=0;entryDy=0;entryPerimeter=0;" parent="1" source="wdtBWJ74mepizvMGTZ-Q-10" target="wdtBWJ74mepizvMGTZ-Q-4" edge="1">
            <mxGeometry x="0.1225" width="160" relative="1" as="geometry">
              <mxPoint x="240" y="530" as="sourcePoint"/>
              <mxPoint x="350" y="580" as="targetPoint"/>
              <mxPoint as="offset"/>
            </mxGeometry>
            <C4Relationship as="c4"/>
          </mxCell>
        </object>
        <object label="&lt;div&gt;WEB业务服务&lt;/div&gt;&lt;div&gt;[Software System]&lt;/div&gt;&lt;div&gt;&lt;br&gt;&lt;/div&gt;&lt;div&gt;为web提供业务数据服务&lt;/div&gt;" placeholders="1" c4Name="name" c4Type="SoftwareSystem" c4Description="Beschreibung" id="wdtBWJ74mepizvMGTZ-Q-17">
          <mxCell style="rounded=1;whiteSpace=wrap;html=1;labelBackgroundColor=none;fillColor=#dae8fc;fontColor=#000000;align=center;arcSize=7;strokeColor=#6c8ebf;" parent="1" vertex="1">
            <mxGeometry x="470" y="370" width="160" height="110" as="geometry"/>
            <C4SoftwareSystem as="c4"/>
          </mxCell>
        </object>
        <object label="&lt;div style=&quot;text-align: left&quot;&gt;&lt;div style=&quot;text-align: center&quot;&gt;&lt;b&gt;业务数据请求&lt;/b&gt;&lt;/div&gt;&lt;div style=&quot;text-align: center&quot;&gt;[反向代理]&lt;/div&gt;&lt;/div&gt;" c4Type="Relationship" c4Description="Beschreibung" c4Technology="technology" id="wdtBWJ74mepizvMGTZ-Q-18">
          <mxCell style="edgeStyle=none;rounded=0;html=1;jettySize=auto;orthogonalLoop=1;strokeColor=#A8A8A8;strokeWidth=2;fontColor=#000000;jumpStyle=none;dashed=1;" parent="1" edge="1">
            <mxGeometry width="160" relative="1" as="geometry">
              <mxPoint x="330" y="420" as="sourcePoint"/>
              <mxPoint x="470" y="420" as="targetPoint"/>
            </mxGeometry>
            <C4Relationship as="c4"/>
          </mxCell>
        </object>
        <object label="&lt;div&gt;底层业务服务&lt;/div&gt;&lt;div&gt;[Software System]&lt;/div&gt;&lt;div&gt;&lt;br&gt;&lt;/div&gt;&lt;div&gt;为web业务提供底层FPGA等数据&lt;/div&gt;" placeholders="1" c4Name="name" c4Type="SoftwareSystem" c4Description="Beschreibung" id="wdtBWJ74mepizvMGTZ-Q-19">
          <mxCell style="rounded=1;whiteSpace=wrap;html=1;labelBackgroundColor=none;fillColor=#808080;fontColor=#333333;align=center;arcSize=7;strokeColor=#666666;" parent="1" vertex="1">
            <mxGeometry x="470" y="590" width="160" height="110" as="geometry"/>
            <C4SoftwareSystem as="c4"/>
          </mxCell>
        </object>
        <object label="&lt;div style=&quot;text-align: left&quot;&gt;&lt;div style=&quot;text-align: center&quot;&gt;&lt;b&gt;使用&lt;/b&gt;&lt;/div&gt;&lt;div style=&quot;text-align: center&quot;&gt;[RESTFUL/rpc/socket]&lt;/div&gt;&lt;/div&gt;" c4Type="Relationship" c4Description="Beschreibung" c4Technology="technology" id="wdtBWJ74mepizvMGTZ-Q-20">
          <mxCell style="edgeStyle=none;rounded=0;html=1;jettySize=auto;orthogonalLoop=1;strokeColor=#A8A8A8;strokeWidth=2;fontColor=#000000;jumpStyle=none;dashed=1;" parent="1" target="wdtBWJ74mepizvMGTZ-Q-19" edge="1">
            <mxGeometry width="160" relative="1" as="geometry">
              <mxPoint x="540" y="480" as="sourcePoint"/>
              <mxPoint x="700" y="480" as="targetPoint"/>
            </mxGeometry>
            <C4Relationship as="c4"/>
          </mxCell>
        </object>
      </root>
    </mxGraphModel>
  </diagram>
  <diagram name="部署图" id="_5Ucf_m7vzcdSmHroI_F">
    <mxGraphModel dx="1422" dy="772" grid="1" gridSize="10" guides="1" tooltips="1" connect="1" arrows="1" fold="1" page="1" pageScale="1" pageWidth="827" pageHeight="1169" math="0" shadow="0">
      <root>
        <mxCell id="0"/>
        <mxCell id="1" parent="0"/>
        <object label="&lt;div style=&quot;text-align: left&quot;&gt;&lt;div&gt;B节点&lt;/div&gt;&lt;div&gt;[[linux&amp;nbsp;X86,内存1G以上]]&lt;/div&gt;&lt;div style=&quot;text-align: right&quot;&gt;背板&lt;/div&gt;&lt;/div&gt;" placeholders="1" c4Name="hostname" c4Type="DeploymentNode" c4OperationSystem="operationSystem" c4ScalingFactor="scalingFactor" id="wdtBWJ74mepizvMGTZ-Q-37">
          <mxCell style="rounded=1;whiteSpace=wrap;html=1;labelBackgroundColor=none;fillColor=#ffffff;fontColor=#000000;align=left;arcSize=3;strokeColor=#000000;verticalAlign=bottom;" parent="1" vertex="1">
            <mxGeometry x="150" y="584" width="565" height="236" as="geometry"/>
            <C4DeploymentNode as="c4"/>
          </mxCell>
        </object>
        <object label="&lt;div style=&quot;text-align: left&quot;&gt;B节点&lt;/div&gt;&lt;div style=&quot;text-align: left&quot;&gt;[[linux&amp;nbsp;X86]]&lt;/div&gt;&lt;div style=&quot;text-align: right&quot;&gt;背板&lt;/div&gt;" placeholders="1" c4Name="hostname" c4Type="DeploymentNode" c4OperationSystem="operationSystem" c4ScalingFactor="scalingFactor" id="wdtBWJ74mepizvMGTZ-Q-34">
          <mxCell style="rounded=1;whiteSpace=wrap;html=1;labelBackgroundColor=none;fillColor=#ffffff;fontColor=#000000;align=left;arcSize=3;strokeColor=#000000;verticalAlign=bottom;" parent="1" vertex="1">
            <mxGeometry x="150" y="900" width="580" height="230" as="geometry"/>
            <C4DeploymentNode as="c4"/>
          </mxCell>
        </object>
        <object label="&lt;div style=&quot;text-align: left&quot;&gt;A节点&lt;/div&gt;&lt;div style=&quot;text-align: left&quot;&gt;[PPC]&lt;/div&gt;&lt;div style=&quot;text-align: left&quot;&gt;管理板&lt;/div&gt;" placeholders="1" c4Name="name" c4Type="ExecutionEnvironment" c4Application="applicationAndVersion" id="wdtBWJ74mepizvMGTZ-Q-7">
          <mxCell style="rounded=1;whiteSpace=wrap;html=1;labelBackgroundColor=none;fillColor=#ffffff;fontColor=#000000;align=left;arcSize=3;strokeColor=#000000;verticalAlign=bottom;" parent="1" vertex="1">
            <mxGeometry x="140" y="340" width="570" height="170" as="geometry"/>
            <C4ExecutionEnvironment as="c4"/>
          </mxCell>
        </object>
        <mxCell id="wdtBWJ74mepizvMGTZ-Q-9" value="" style="group;rounded=0;labelBackgroundColor=none;fillColor=none;fontColor=#000000;align=center;html=1;" parent="1" vertex="1" connectable="0">
          <mxGeometry x="190" y="130" width="140" height="140" as="geometry"/>
          <C4Person as="c4"/>
        </mxCell>
        <object label="&lt;div&gt;设备使用人员&amp;nbsp;&lt;/div&gt;&lt;div&gt;[Person]&lt;/div&gt;&lt;div&gt;浏览器访问&lt;/div&gt;" placeholders="1" c4Name="name" c4Type="body" c4Description="Beschreibung" id="wdtBWJ74mepizvMGTZ-Q-10">
          <mxCell style="rounded=1;whiteSpace=wrap;html=1;labelBackgroundColor=none;fillColor=#dae8fc;fontColor=#000000;align=center;arcSize=33;strokeColor=#3333FF;" parent="wdtBWJ74mepizvMGTZ-Q-9" vertex="1">
            <mxGeometry y="54.44444444444444" width="140" height="85.55555555555556" as="geometry"/>
            <C4Person as="c4"/>
          </mxCell>
        </object>
        <mxCell id="wdtBWJ74mepizvMGTZ-Q-11" value="" style="ellipse;whiteSpace=wrap;html=1;aspect=fixed;rounded=0;labelBackgroundColor=none;fillColor=#dae8fc;fontSize=12;fontColor=#000000;align=center;strokeColor=#6c8ebf;" parent="wdtBWJ74mepizvMGTZ-Q-9" vertex="1">
          <mxGeometry x="35" width="62.22222222222222" height="62.22222222222222" as="geometry"/>
          <C4Person as="c4"/>
        </mxCell>
        <object label="&lt;div style=&quot;text-align: left&quot;&gt;&lt;div style=&quot;text-align: center&quot;&gt;&lt;b&gt;访问&lt;/b&gt;&lt;/div&gt;&lt;div style=&quot;text-align: center&quot;&gt;[http/https/websocket]&lt;/div&gt;&lt;/div&gt;" c4Type="Relationship" c4Description="访问" c4Technology="http/https" id="wdtBWJ74mepizvMGTZ-Q-16">
          <mxCell style="edgeStyle=none;rounded=0;html=1;jettySize=auto;orthogonalLoop=1;strokeColor=#A8A8A8;strokeWidth=2;fontColor=#000000;jumpStyle=none;dashed=1;exitX=0.5;exitY=1;exitDx=0;exitDy=0;entryX=0.5;entryY=0;entryDx=0;entryDy=0;" parent="1" source="wdtBWJ74mepizvMGTZ-Q-10" target="wdtBWJ74mepizvMGTZ-Q-26" edge="1">
            <mxGeometry x="0.1225" width="160" relative="1" as="geometry">
              <mxPoint x="240" y="530" as="sourcePoint"/>
              <mxPoint x="257.03999999999996" y="367.03" as="targetPoint"/>
              <mxPoint as="offset"/>
            </mxGeometry>
            <C4Relationship as="c4"/>
          </mxCell>
        </object>
        <object label="单页web&lt;br&gt;&lt;div&gt;[Container:&amp;nbsp;VUE，elementUI，javascript，echart，zrender，axios，css，html&lt;span&gt;]&lt;/span&gt;&lt;/div&gt;&lt;div&gt;&lt;br&gt;&lt;/div&gt;&lt;div&gt;WEB UI，独立的MVVM模型&lt;/div&gt;" placeholders="1" c4Name="name" c4Type="Container" c4Technology="technology" c4Description="Beschreibung" id="wdtBWJ74mepizvMGTZ-Q-21">
          <mxCell style="rounded=1;whiteSpace=wrap;html=1;labelBackgroundColor=none;fillColor=#dae8fc;fontColor=#000000;align=center;arcSize=6;strokeColor=#6c8ebf;" parent="1" vertex="1">
            <mxGeometry x="460" y="370" width="160" height="110" as="geometry"/>
            <C4Container as="c4"/>
          </mxCell>
        </object>
        <object label="&lt;div style=&quot;text-align: left&quot;&gt;&lt;div style=&quot;text-align: center&quot;&gt;&lt;b&gt;请求&lt;/b&gt;&lt;/div&gt;&lt;div style=&quot;text-align: center&quot;&gt;[http/https,json，websocket]&lt;/div&gt;&lt;/div&gt;" c4Type="Relationship" c4Description="请求" c4Technology="http/https,json，websocket" id="wdtBWJ74mepizvMGTZ-Q-25">
          <mxCell style="edgeStyle=none;rounded=0;html=1;jettySize=auto;orthogonalLoop=1;strokeColor=#A8A8A8;strokeWidth=2;fontColor=#000000;jumpStyle=none;dashed=1;exitX=0.5;exitY=1;exitDx=0;exitDy=0;entryX=0.5;entryY=0;entryDx=0;entryDy=0;" parent="1" source="wdtBWJ74mepizvMGTZ-Q-21" target="wdtBWJ74mepizvMGTZ-Q-28" edge="1">
            <mxGeometry width="160" relative="1" as="geometry">
              <mxPoint x="330" y="580" as="sourcePoint"/>
              <mxPoint x="440" y="425" as="targetPoint"/>
            </mxGeometry>
            <C4Relationship as="c4"/>
          </mxCell>
        </object>
        <object label="web服务&lt;br&gt;&lt;div&gt;[Container:&amp;nbsp;nginx&lt;span&gt;]&lt;/span&gt;&lt;/div&gt;&lt;div&gt;&lt;br&gt;&lt;/div&gt;&lt;div&gt;nginx处理静态文件以及反向代理，同时作为负载均衡API服务&lt;/div&gt;" placeholders="1" c4Name="name" c4Type="Container" c4Technology="technology" c4Description="Beschreibung" id="wdtBWJ74mepizvMGTZ-Q-26">
          <mxCell style="rounded=1;whiteSpace=wrap;html=1;labelBackgroundColor=none;fillColor=#dae8fc;fontColor=#000000;align=center;arcSize=6;strokeColor=#6c8ebf;" parent="1" vertex="1">
            <mxGeometry x="200" y="372" width="160" height="110" as="geometry"/>
            <C4Container as="c4"/>
          </mxCell>
        </object>
        <object label="&lt;div style=&quot;text-align: left&quot;&gt;&lt;div style=&quot;text-align: center&quot;&gt;&lt;b&gt;读取&lt;/b&gt;&lt;/div&gt;&lt;div style=&quot;text-align: center&quot;&gt;&lt;br&gt;&lt;/div&gt;&lt;/div&gt;" c4Type="Relationship" c4Description="Beschreibung" c4Technology="technology" id="wdtBWJ74mepizvMGTZ-Q-27">
          <mxCell style="edgeStyle=none;rounded=0;html=1;entryX=0;entryY=0.5;jettySize=auto;orthogonalLoop=1;strokeColor=#A8A8A8;strokeWidth=2;fontColor=#000000;jumpStyle=none;dashed=1;entryDx=0;entryDy=0;exitX=1;exitY=0.5;exitDx=0;exitDy=0;" parent="1" source="wdtBWJ74mepizvMGTZ-Q-26" target="wdtBWJ74mepizvMGTZ-Q-21" edge="1">
            <mxGeometry width="160" relative="1" as="geometry">
              <mxPoint x="340" y="420" as="sourcePoint"/>
              <mxPoint x="500" y="420" as="targetPoint"/>
            </mxGeometry>
            <C4Relationship as="c4"/>
          </mxCell>
        </object>
        <object label="API业务&lt;br&gt;&lt;div&gt;[Container:&amp;nbsp;java，Spring&amp;nbsp;boot，Spring&amp;nbsp;MVC&lt;span&gt;]&lt;/span&gt;&lt;/div&gt;&lt;div&gt;提供单页web&amp;nbsp;api&amp;nbsp;服务&lt;/div&gt;&lt;div&gt;&lt;br&gt;&lt;/div&gt;" placeholders="1" c4Name="name" c4Type="Container" c4Technology="technology" c4Description="Beschreibung" id="wdtBWJ74mepizvMGTZ-Q-28">
          <mxCell style="rounded=1;whiteSpace=wrap;html=1;labelBackgroundColor=none;fillColor=#dae8fc;fontColor=#000000;align=center;arcSize=6;strokeColor=#6c8ebf;" parent="1" vertex="1">
            <mxGeometry x="460" y="640" width="160" height="110" as="geometry"/>
            <C4Container as="c4"/>
          </mxCell>
        </object>
        <object label="&lt;div style=&quot;text-align: left&quot;&gt;&lt;div style=&quot;text-align: center&quot;&gt;&lt;b&gt;返回WEB页面&lt;/b&gt;&lt;/div&gt;&lt;div style=&quot;text-align: center&quot;&gt;[http/https]&lt;/div&gt;&lt;/div&gt;" c4Type="Relationship" c4Description="返回WEB页面" c4Technology="http/https" id="wdtBWJ74mepizvMGTZ-Q-29">
          <mxCell style="edgeStyle=none;rounded=0;html=1;entryX=1;entryY=0.75;jettySize=auto;orthogonalLoop=1;strokeColor=#A8A8A8;strokeWidth=2;fontColor=#000000;jumpStyle=none;dashed=1;entryDx=0;entryDy=0;" parent="1" target="wdtBWJ74mepizvMGTZ-Q-10" edge="1">
            <mxGeometry width="160" relative="1" as="geometry">
              <mxPoint x="540" y="370" as="sourcePoint"/>
              <mxPoint x="700" y="370" as="targetPoint"/>
            </mxGeometry>
            <C4Relationship as="c4"/>
          </mxCell>
        </object>
        <object label="关系数据库&lt;br&gt;&lt;div&gt;[Container:&amp;nbsp;mysql]&lt;/div&gt;&lt;div&gt;&lt;br&gt;&lt;/div&gt;&lt;div&gt;提供筛选，排序，关联多表业务数据&lt;/div&gt;" placeholders="1" c4Type="Database" c4Technology="technology" c4Description="Beschreibung" id="wdtBWJ74mepizvMGTZ-Q-30">
          <mxCell style="shape=cylinder;whiteSpace=wrap;html=1;boundedLbl=1;rounded=0;labelBackgroundColor=none;fillColor=#dae8fc;fontSize=12;fontColor=#000000;align=center;strokeColor=#6c8ebf;" parent="1" vertex="1">
            <mxGeometry x="240" y="940" width="160" height="140" as="geometry"/>
            <C4Database as="c4"/>
          </mxCell>
        </object>
        <object label="NoSql&lt;br&gt;&lt;div&gt;[Container:&amp;nbsp;redis]&lt;/div&gt;&lt;div&gt;&lt;br&gt;&lt;/div&gt;&lt;div&gt;提供共享会话管理，热点数据备份，消息队列。&lt;/div&gt;" placeholders="1" c4Type="Database" c4Technology="technology" c4Description="Beschreibung" id="wdtBWJ74mepizvMGTZ-Q-31">
          <mxCell style="shape=cylinder;whiteSpace=wrap;html=1;boundedLbl=1;rounded=0;labelBackgroundColor=none;fillColor=#dae8fc;fontSize=12;fontColor=#000000;align=center;strokeColor=#6c8ebf;" parent="1" vertex="1">
            <mxGeometry x="510" y="935" width="160" height="140" as="geometry"/>
            <C4Database as="c4"/>
          </mxCell>
        </object>
        <object label="&lt;div style=&quot;text-align: left&quot;&gt;&lt;div style=&quot;text-align: center&quot;&gt;&lt;b&gt;使用&lt;/b&gt;&lt;/div&gt;&lt;div style=&quot;text-align: center&quot;&gt;[mybatisplus]&lt;/div&gt;&lt;/div&gt;" c4Type="Relationship" c4Description="使用" c4Technology="mybatisplus" placeholders="1" id="wdtBWJ74mepizvMGTZ-Q-32">
          <mxCell style="edgeStyle=none;rounded=0;html=1;entryX=0.5;entryY=0;jettySize=auto;orthogonalLoop=1;strokeColor=#A8A8A8;strokeWidth=2;fontColor=#000000;jumpStyle=none;dashed=1;entryDx=0;entryDy=0;exitX=0.25;exitY=1;exitDx=0;exitDy=0;" parent="1" source="wdtBWJ74mepizvMGTZ-Q-28" target="wdtBWJ74mepizvMGTZ-Q-30" edge="1">
            <mxGeometry width="160" relative="1" as="geometry">
              <mxPoint x="460" y="670" as="sourcePoint"/>
              <mxPoint x="620" y="670" as="targetPoint"/>
            </mxGeometry>
            <C4Relationship as="c4"/>
          </mxCell>
        </object>
        <object label="&lt;div style=&quot;text-align: left&quot;&gt;&lt;div style=&quot;text-align: center&quot;&gt;&lt;b&gt;使用&lt;/b&gt;&lt;/div&gt;&lt;div style=&quot;text-align: center&quot;&gt;[Lettuce]&lt;/div&gt;&lt;/div&gt;" c4Type="Relationship" c4Description="使用" c4Technology="Lettuce" id="wdtBWJ74mepizvMGTZ-Q-33">
          <mxCell style="edgeStyle=none;rounded=0;html=1;jettySize=auto;orthogonalLoop=1;strokeColor=#A8A8A8;strokeWidth=2;fontColor=#000000;jumpStyle=none;dashed=1;entryX=0.5;entryY=0;entryDx=0;entryDy=0;exitX=0.75;exitY=1;exitDx=0;exitDy=0;" parent="1" source="wdtBWJ74mepizvMGTZ-Q-28" target="wdtBWJ74mepizvMGTZ-Q-31" edge="1">
            <mxGeometry width="160" relative="1" as="geometry">
              <mxPoint x="580" y="740" as="sourcePoint"/>
              <mxPoint x="354" y="622.98" as="targetPoint"/>
            </mxGeometry>
            <C4Relationship as="c4"/>
          </mxCell>
        </object>
        <object label="&lt;div style=&quot;text-align: left&quot;&gt;&lt;div style=&quot;text-align: center&quot;&gt;&lt;b&gt;调用&lt;/b&gt;&lt;/div&gt;&lt;div style=&quot;text-align: center&quot;&gt;[restful,RPC,socket]&lt;/div&gt;&lt;/div&gt;" c4Type="Relationship" c4Description="调用" c4Technology="restful,RPC,socket" id="wdtBWJ74mepizvMGTZ-Q-41">
          <mxCell style="edgeStyle=none;rounded=0;html=1;entryX=-0.013;entryY=0.468;jettySize=auto;orthogonalLoop=1;strokeColor=#A8A8A8;strokeWidth=2;fontColor=#000000;jumpStyle=none;dashed=1;entryDx=0;entryDy=0;entryPerimeter=0;exitX=1;exitY=0.5;exitDx=0;exitDy=0;" parent="1" source="wdtBWJ74mepizvMGTZ-Q-28" target="wdtBWJ74mepizvMGTZ-Q-38" edge="1">
            <mxGeometry width="160" relative="1" as="geometry">
              <mxPoint x="620" y="700" as="sourcePoint"/>
              <mxPoint x="780" y="700" as="targetPoint"/>
            </mxGeometry>
            <C4Relationship as="c4"/>
          </mxCell>
        </object>
        <mxCell id="zLJuWf6_sV_5A642XpI5-1" value="" style="group" vertex="1" connectable="0" parent="1">
          <mxGeometry x="800" y="577" width="260" height="250" as="geometry"/>
        </mxCell>
        <object label="&lt;div style=&quot;text-align: left&quot;&gt;C节点&lt;/div&gt;&lt;div style=&quot;text-align: left&quot;&gt;[ppc or&amp;nbsp;x86]&lt;/div&gt;&lt;div style=&quot;text-align: right&quot;&gt;&lt;br&gt;&lt;/div&gt;" placeholders="1" c4Name="hostname" c4Type="DeploymentNode" c4OperationSystem="operationSystem" c4ScalingFactor="scalingFactor" id="wdtBWJ74mepizvMGTZ-Q-38">
          <mxCell style="rounded=1;whiteSpace=wrap;html=1;labelBackgroundColor=none;fillColor=#ffffff;fontColor=#000000;align=left;arcSize=3;strokeColor=#000000;verticalAlign=bottom;" parent="zLJuWf6_sV_5A642XpI5-1" vertex="1">
            <mxGeometry width="260" height="250" as="geometry"/>
            <C4DeploymentNode as="c4"/>
          </mxCell>
        </object>
        <object label="&lt;div&gt;底层业务服务API&lt;/div&gt;&lt;div&gt;[Software System]&lt;/div&gt;&lt;div&gt;&lt;br&gt;&lt;/div&gt;&lt;div&gt;为web API&amp;nbsp;业务提供数据支持&lt;/div&gt;" placeholders="1" c4Name="name" c4Type="SoftwareSystem" c4Description="Beschreibung" id="wdtBWJ74mepizvMGTZ-Q-40">
          <mxCell style="rounded=1;whiteSpace=wrap;html=1;labelBackgroundColor=none;fillColor=#808080;fontColor=#000000;align=center;arcSize=7;strokeColor=#6c8ebf;" parent="zLJuWf6_sV_5A642XpI5-1" vertex="1">
            <mxGeometry x="50" y="63" width="160" height="110" as="geometry"/>
            <C4SoftwareSystem as="c4"/>
          </mxCell>
        </object>
      </root>
    </mxGraphModel>
  </diagram>
  <diagram id="SCgSGSpWflxzpvyKGVRI" name="API服务视图">
    <mxGraphModel dx="2249" dy="772" grid="1" gridSize="10" guides="1" tooltips="1" connect="1" arrows="1" fold="1" page="1" pageScale="1" pageWidth="827" pageHeight="1169" math="0" shadow="0">
      <root>
        <mxCell id="GrARjp8d3IiTH5JFv-NG-0"/>
        <mxCell id="GrARjp8d3IiTH5JFv-NG-1" parent="GrARjp8d3IiTH5JFv-NG-0"/>
        <object label="&lt;div style=&quot;text-align: left&quot;&gt;API业务&lt;/div&gt;&lt;div style=&quot;text-align: left&quot;&gt;[x86]&lt;/div&gt;&lt;div style=&quot;text-align: left&quot;&gt;X2&lt;/div&gt;" placeholders="1" c4Name="API业务" c4Type="ExecutionEnvironment" c4Application="x86" id="t42CSKTdvGtYABJgcp1a-1">
          <mxCell style="rounded=1;whiteSpace=wrap;html=1;labelBackgroundColor=none;fillColor=#ffffff;fontColor=#000000;align=left;arcSize=3;strokeColor=#000000;verticalAlign=bottom;rotation=0;" vertex="1" parent="GrARjp8d3IiTH5JFv-NG-1">
            <mxGeometry x="-130" y="230" width="1600" height="640" as="geometry"/>
            <C4ExecutionEnvironment as="c4"/>
          </mxCell>
        </object>
        <object label="单页web&lt;br&gt;&lt;div&gt;[Container:&amp;nbsp;VUE，elementUI，javascript，echart，zrender，axios，css，html&lt;span&gt;]&lt;/span&gt;&lt;/div&gt;&lt;div&gt;&lt;br&gt;&lt;/div&gt;&lt;div&gt;WEB UI，独立的MVVM模型&lt;/div&gt;" placeholders="1" c4Name="name" c4Type="Container" c4Technology="technology" c4Description="Beschreibung" id="T6bK6KKdML8kLNwiy5O7-0">
          <mxCell style="rounded=1;whiteSpace=wrap;html=1;labelBackgroundColor=none;fillColor=#dae8fc;fontColor=#000000;align=center;arcSize=6;strokeColor=#6c8ebf;" vertex="1" parent="GrARjp8d3IiTH5JFv-NG-1">
            <mxGeometry x="617.5" y="80" width="160" height="110" as="geometry"/>
            <C4Container as="c4"/>
          </mxCell>
        </object>
        <object label="&lt;div style=&quot;text-align: left&quot;&gt;&lt;div style=&quot;text-align: center&quot;&gt;&lt;b&gt;请求&lt;/b&gt;&lt;/div&gt;&lt;div style=&quot;text-align: center&quot;&gt;[http/json]&lt;/div&gt;&lt;/div&gt;" c4Type="Relationship" c4Description="请求" c4Technology="http/json" id="251RUzQa5sYnRt40IbcW-3">
          <mxCell style="edgeStyle=none;rounded=0;html=1;entryX=0.5;entryY=0;jettySize=auto;orthogonalLoop=1;strokeColor=#A8A8A8;strokeWidth=2;fontColor=#000000;jumpStyle=none;dashed=1;entryDx=0;entryDy=0;" edge="1" parent="GrARjp8d3IiTH5JFv-NG-1" target="251RUzQa5sYnRt40IbcW-12">
            <mxGeometry width="160" relative="1" as="geometry">
              <mxPoint x="700" y="190" as="sourcePoint"/>
              <mxPoint x="860" y="190" as="targetPoint"/>
            </mxGeometry>
            <C4Relationship as="c4"/>
          </mxCell>
        </object>
        <mxCell id="251RUzQa5sYnRt40IbcW-11" value="" style="group" vertex="1" connectable="0" parent="GrARjp8d3IiTH5JFv-NG-1">
          <mxGeometry x="90" y="410" width="1330" height="90" as="geometry"/>
        </mxCell>
        <object label="&lt;span&gt;性能控制器&lt;/span&gt;&lt;div&gt;[Component:&amp;nbsp;&lt;span&gt;spring mvc RestController&lt;/span&gt;&lt;span&gt;]&lt;/span&gt;&lt;/div&gt;&lt;div&gt;&lt;br&gt;&lt;/div&gt;&lt;div&gt;提供web界面需要的实时和历史数据&lt;/div&gt;" placeholders="1" c4Name="性能控制器" c4Type="Component" c4Technology="spring mvc RestController" c4Description="提供web界面需要的实时和历史数据" id="t42CSKTdvGtYABJgcp1a-2">
          <mxCell style="rounded=1;whiteSpace=wrap;html=1;labelBackgroundColor=none;fillColor=#dae8fc;fontColor=#000000;align=center;arcSize=7;strokeColor=#6c8ebf;" vertex="1" parent="251RUzQa5sYnRt40IbcW-11">
            <mxGeometry width="150" height="90" as="geometry"/>
            <C4Component as="c4"/>
          </mxCell>
        </object>
        <mxCell id="251RUzQa5sYnRt40IbcW-10" value="" style="group" vertex="1" connectable="0" parent="251RUzQa5sYnRt40IbcW-11">
          <mxGeometry x="170" width="1160" height="90" as="geometry"/>
        </mxCell>
        <object label="&lt;span&gt;日志控制器&lt;/span&gt;&lt;div&gt;[Component:&amp;nbsp;&lt;span&gt;spring mvc RestController&lt;/span&gt;&lt;span&gt;]&lt;/span&gt;&lt;/div&gt;&lt;div&gt;&lt;br&gt;&lt;/div&gt;&lt;div&gt;提供web界面需要的列表数据，可排序，分页搜索&lt;/div&gt;" c4Name="日志控制器" c4Type="Component" c4Technology="spring mvc RestController" c4Description="提供web界面需要的列表数据，可排序，分页搜索" id="uVbP3ezxf3-u4zwm14uK-0">
          <mxCell style="rounded=1;whiteSpace=wrap;html=1;labelBackgroundColor=none;fillColor=#dae8fc;fontColor=#000000;align=center;arcSize=7;strokeColor=#6c8ebf;" vertex="1" parent="251RUzQa5sYnRt40IbcW-10">
            <mxGeometry width="150" height="90" as="geometry"/>
            <C4Component as="c4"/>
          </mxCell>
        </object>
        <object label="&lt;span&gt;监控控制器&lt;/span&gt;&lt;div&gt;[Component:&amp;nbsp;&lt;span&gt;spring mvc RestController&lt;/span&gt;&lt;span&gt;]&lt;/span&gt;&lt;/div&gt;&lt;div&gt;&lt;br&gt;&lt;/div&gt;&lt;div&gt;设置监控对象，监控指标，阈值以及采集周期&lt;/div&gt;" c4Name="监控控制器" c4Type="Component" c4Technology="spring mvc RestController" c4Description="设置监控对象，监控指标，阈值以及采集周期" id="uVbP3ezxf3-u4zwm14uK-1">
          <mxCell style="rounded=1;whiteSpace=wrap;html=1;labelBackgroundColor=none;fillColor=#dae8fc;fontColor=#000000;align=center;arcSize=7;strokeColor=#6c8ebf;" vertex="1" parent="251RUzQa5sYnRt40IbcW-10">
            <mxGeometry x="170" width="150" height="90" as="geometry"/>
            <C4Component as="c4"/>
          </mxCell>
        </object>
        <object label="&lt;span&gt;告警控制器&lt;/span&gt;&lt;div&gt;[Component:&amp;nbsp;&lt;span&gt;spring mvc RestController&lt;/span&gt;&lt;span&gt;]&lt;/span&gt;&lt;/div&gt;&lt;div&gt;&lt;br&gt;&lt;/div&gt;&lt;div&gt;告警列表，告警处理&lt;/div&gt;" c4Name="告警控制器" c4Type="Component" c4Technology="spring mvc RestController" c4Description="告警列表，告警处理" id="uVbP3ezxf3-u4zwm14uK-2">
          <mxCell style="rounded=1;whiteSpace=wrap;html=1;labelBackgroundColor=none;fillColor=#dae8fc;fontColor=#000000;align=center;arcSize=7;strokeColor=#6c8ebf;" vertex="1" parent="251RUzQa5sYnRt40IbcW-10">
            <mxGeometry x="340" width="150" height="90" as="geometry"/>
            <C4Component as="c4"/>
          </mxCell>
        </object>
        <object label="&lt;span&gt;业务控制器&lt;/span&gt;&lt;div&gt;[Component:&amp;nbsp;&lt;span&gt;spring mvc RestController&lt;/span&gt;&lt;span&gt;]&lt;/span&gt;&lt;/div&gt;&lt;div&gt;&lt;br&gt;&lt;/div&gt;&lt;div&gt;根据业务场景下发配置&lt;/div&gt;" c4Name="业务控制器" c4Type="Component" c4Technology="spring mvc RestController" c4Description="根据业务场景下发配置" id="uVbP3ezxf3-u4zwm14uK-3">
          <mxCell style="rounded=1;whiteSpace=wrap;html=1;labelBackgroundColor=none;fillColor=#dae8fc;fontColor=#000000;align=center;arcSize=7;strokeColor=#6c8ebf;" vertex="1" parent="251RUzQa5sYnRt40IbcW-10">
            <mxGeometry x="510" width="150" height="90" as="geometry"/>
            <C4Component as="c4"/>
          </mxCell>
        </object>
        <object label="&lt;span&gt;网元控制器&lt;/span&gt;&lt;div&gt;[Component:&amp;nbsp;&lt;span&gt;spring mvc RestController&lt;/span&gt;&lt;span&gt;]&lt;/span&gt;&lt;/div&gt;&lt;div&gt;&lt;br&gt;&lt;/div&gt;&lt;div&gt;查看，修改等网元信息&lt;/div&gt;" c4Name="网元控制器" c4Type="Component" c4Technology="spring mvc RestController" c4Description="查看，修改等网元信息" id="251RUzQa5sYnRt40IbcW-0">
          <mxCell style="rounded=1;whiteSpace=wrap;html=1;labelBackgroundColor=none;fillColor=#dae8fc;fontColor=#000000;align=center;arcSize=7;strokeColor=#6c8ebf;" vertex="1" parent="251RUzQa5sYnRt40IbcW-10">
            <mxGeometry x="680" width="150" height="90" as="geometry"/>
            <C4Component as="c4"/>
          </mxCell>
        </object>
        <object label="&lt;span&gt;拓扑控制器&lt;/span&gt;&lt;div&gt;[Component:&amp;nbsp;&lt;span&gt;spring mvc RestController&lt;/span&gt;&lt;span&gt;]&lt;/span&gt;&lt;/div&gt;&lt;div&gt;&lt;br&gt;&lt;/div&gt;&lt;div&gt;各物理设备的运行状态&lt;/div&gt;" c4Name="拓扑控制器" c4Type="Component" c4Technology="spring mvc RestController" c4Description="各物理设备的运行状态" id="251RUzQa5sYnRt40IbcW-1">
          <mxCell style="rounded=1;whiteSpace=wrap;html=1;labelBackgroundColor=none;fillColor=#dae8fc;fontColor=#000000;align=center;arcSize=7;strokeColor=#6c8ebf;" vertex="1" parent="251RUzQa5sYnRt40IbcW-10">
            <mxGeometry x="850" width="150" height="90" as="geometry"/>
            <C4Component as="c4"/>
          </mxCell>
        </object>
        <object label="&lt;span&gt;权限控制器&lt;/span&gt;&lt;div&gt;[Component:&amp;nbsp;&lt;span&gt;spring mvc RestController&lt;/span&gt;&lt;span&gt;]&lt;/span&gt;&lt;/div&gt;&lt;div&gt;&lt;br&gt;&lt;/div&gt;&lt;div&gt;管理员可分配不同的权限&lt;/div&gt;" c4Name="权限控制器" c4Type="Component" c4Technology="spring mvc RestController" c4Description="管理员可分配不同的权限" id="251RUzQa5sYnRt40IbcW-2">
          <mxCell style="rounded=1;whiteSpace=wrap;html=1;labelBackgroundColor=none;fillColor=#dae8fc;fontColor=#000000;align=center;arcSize=7;strokeColor=#6c8ebf;" vertex="1" parent="251RUzQa5sYnRt40IbcW-10">
            <mxGeometry x="1010" width="150" height="90" as="geometry"/>
            <C4Component as="c4"/>
          </mxCell>
        </object>
        <object label="&lt;div style=&quot;text-align: left&quot;&gt;&lt;div style=&quot;text-align: center&quot;&gt;&lt;b&gt;请求&lt;/b&gt;&lt;/div&gt;&lt;div style=&quot;text-align: center&quot;&gt;[http/json]&lt;/div&gt;&lt;/div&gt;" c4Type="Relationship" c4Description="请求" c4Technology="http/json" id="251RUzQa5sYnRt40IbcW-17">
          <mxCell style="edgeStyle=none;rounded=0;html=1;entryX=0.5;entryY=0;jettySize=auto;orthogonalLoop=1;strokeColor=#A8A8A8;strokeWidth=2;fontColor=#000000;jumpStyle=none;dashed=1;entryDx=0;entryDy=0;" edge="1" parent="251RUzQa5sYnRt40IbcW-10" target="uVbP3ezxf3-u4zwm14uK-0">
            <mxGeometry width="160" relative="1" as="geometry">
              <mxPoint x="430" y="-60" as="sourcePoint"/>
              <mxPoint x="-85" y="10" as="targetPoint"/>
            </mxGeometry>
            <C4Relationship as="c4"/>
          </mxCell>
        </object>
        <object label="&lt;span&gt;拦截器&lt;/span&gt;&lt;div&gt;[Component:&amp;nbsp;&lt;span&gt;HandlerInterceptor&lt;/span&gt;&lt;span&gt;]&lt;/span&gt;&lt;/div&gt;&lt;div&gt;&lt;br&gt;&lt;/div&gt;&lt;div&gt;拦截请求，进行权限控制&lt;/div&gt;" placeholders="1" c4Name="拦截器" c4Type="Component" c4Technology="HandlerInterceptor" c4Description="拦截请求，进行权限控制" id="251RUzQa5sYnRt40IbcW-12">
          <mxCell style="rounded=1;whiteSpace=wrap;html=1;labelBackgroundColor=none;fillColor=#dae8fc;fontColor=#000000;align=center;arcSize=7;strokeColor=#6c8ebf;" vertex="1" parent="GrARjp8d3IiTH5JFv-NG-1">
            <mxGeometry x="600" y="260" width="195" height="90" as="geometry"/>
            <C4Component as="c4"/>
          </mxCell>
        </object>
        <object label="&lt;div style=&quot;text-align: left&quot;&gt;&lt;div style=&quot;text-align: center&quot;&gt;&lt;b&gt;请求&lt;/b&gt;&lt;/div&gt;&lt;div style=&quot;text-align: center&quot;&gt;[http/json]&lt;/div&gt;&lt;/div&gt;" c4Type="Relationship" c4Description="请求" c4Technology="http/json" id="251RUzQa5sYnRt40IbcW-16">
          <mxCell style="edgeStyle=none;rounded=0;html=1;entryX=0.5;entryY=0;jettySize=auto;orthogonalLoop=1;strokeColor=#A8A8A8;strokeWidth=2;fontColor=#000000;jumpStyle=none;dashed=1;entryDx=0;entryDy=0;exitX=0.5;exitY=1;exitDx=0;exitDy=0;" edge="1" parent="GrARjp8d3IiTH5JFv-NG-1" source="251RUzQa5sYnRt40IbcW-12" target="t42CSKTdvGtYABJgcp1a-2">
            <mxGeometry width="160" relative="1" as="geometry">
              <mxPoint x="710" y="200" as="sourcePoint"/>
              <mxPoint x="707.5" y="270" as="targetPoint"/>
            </mxGeometry>
            <C4Relationship as="c4"/>
          </mxCell>
        </object>
        <object label="&lt;div style=&quot;text-align: left&quot;&gt;&lt;div style=&quot;text-align: center&quot;&gt;&lt;b&gt;请求&lt;/b&gt;&lt;/div&gt;&lt;div style=&quot;text-align: center&quot;&gt;[http/json]&lt;/div&gt;&lt;/div&gt;" c4Type="Relationship" c4Description="请求" c4Technology="http/json" id="251RUzQa5sYnRt40IbcW-19">
          <mxCell style="edgeStyle=none;rounded=0;html=1;entryX=0.75;entryY=0;jettySize=auto;orthogonalLoop=1;strokeColor=#A8A8A8;strokeWidth=2;fontColor=#000000;jumpStyle=none;dashed=1;entryDx=0;entryDy=0;exitX=0.5;exitY=1;exitDx=0;exitDy=0;" edge="1" parent="GrARjp8d3IiTH5JFv-NG-1" source="251RUzQa5sYnRt40IbcW-12" target="uVbP3ezxf3-u4zwm14uK-1">
            <mxGeometry width="160" relative="1" as="geometry">
              <mxPoint x="700" y="360" as="sourcePoint"/>
              <mxPoint x="345" y="420" as="targetPoint"/>
            </mxGeometry>
            <C4Relationship as="c4"/>
          </mxCell>
        </object>
        <object label="&lt;div style=&quot;text-align: left&quot;&gt;&lt;div style=&quot;text-align: center&quot;&gt;&lt;b&gt;请求&lt;/b&gt;&lt;/div&gt;&lt;div style=&quot;text-align: center&quot;&gt;[http/json]&lt;/div&gt;&lt;/div&gt;" c4Type="Relationship" c4Description="请求" c4Technology="http/json" id="251RUzQa5sYnRt40IbcW-20">
          <mxCell style="edgeStyle=none;rounded=0;html=1;entryX=0.5;entryY=0;jettySize=auto;orthogonalLoop=1;strokeColor=#A8A8A8;strokeWidth=2;fontColor=#000000;jumpStyle=none;dashed=1;entryDx=0;entryDy=0;exitX=0.544;exitY=0.989;exitDx=0;exitDy=0;exitPerimeter=0;" edge="1" parent="GrARjp8d3IiTH5JFv-NG-1" source="251RUzQa5sYnRt40IbcW-12" target="uVbP3ezxf3-u4zwm14uK-2">
            <mxGeometry width="160" relative="1" as="geometry">
              <mxPoint x="707.5" y="360" as="sourcePoint"/>
              <mxPoint x="552.5" y="420" as="targetPoint"/>
            </mxGeometry>
            <C4Relationship as="c4"/>
          </mxCell>
        </object>
        <object label="&lt;div style=&quot;text-align: left&quot;&gt;&lt;div style=&quot;text-align: center&quot;&gt;&lt;b&gt;请求&lt;/b&gt;&lt;/div&gt;&lt;div style=&quot;text-align: center&quot;&gt;[http/json]&lt;/div&gt;&lt;/div&gt;" c4Type="Relationship" c4Description="请求" c4Technology="http/json" id="251RUzQa5sYnRt40IbcW-21">
          <mxCell style="edgeStyle=none;rounded=0;html=1;entryX=0.5;entryY=0;jettySize=auto;orthogonalLoop=1;strokeColor=#A8A8A8;strokeWidth=2;fontColor=#000000;jumpStyle=none;dashed=1;entryDx=0;entryDy=0;" edge="1" parent="GrARjp8d3IiTH5JFv-NG-1" target="uVbP3ezxf3-u4zwm14uK-3">
            <mxGeometry width="160" relative="1" as="geometry">
              <mxPoint x="710" y="350" as="sourcePoint"/>
              <mxPoint x="562.5" y="430" as="targetPoint"/>
            </mxGeometry>
            <C4Relationship as="c4"/>
          </mxCell>
        </object>
        <object label="&lt;div style=&quot;text-align: left&quot;&gt;&lt;div style=&quot;text-align: center&quot;&gt;&lt;b&gt;请求&lt;/b&gt;&lt;/div&gt;&lt;div style=&quot;text-align: center&quot;&gt;[http/json]&lt;/div&gt;&lt;/div&gt;" c4Type="Relationship" c4Description="请求" c4Technology="http/json" id="251RUzQa5sYnRt40IbcW-22">
          <mxCell style="edgeStyle=none;rounded=0;html=1;entryX=0.313;entryY=-0.011;jettySize=auto;orthogonalLoop=1;strokeColor=#A8A8A8;strokeWidth=2;fontColor=#000000;jumpStyle=none;dashed=1;entryDx=0;entryDy=0;entryPerimeter=0;" edge="1" parent="GrARjp8d3IiTH5JFv-NG-1" target="251RUzQa5sYnRt40IbcW-0">
            <mxGeometry width="160" relative="1" as="geometry">
              <mxPoint x="710" y="350" as="sourcePoint"/>
              <mxPoint x="572.5" y="440" as="targetPoint"/>
            </mxGeometry>
            <C4Relationship as="c4"/>
          </mxCell>
        </object>
        <object label="&lt;div style=&quot;text-align: left&quot;&gt;&lt;div style=&quot;text-align: center&quot;&gt;&lt;b&gt;请求&lt;/b&gt;&lt;/div&gt;&lt;div style=&quot;text-align: center&quot;&gt;[http/json]&lt;/div&gt;&lt;/div&gt;" c4Type="Relationship" c4Description="请求" c4Technology="http/json" id="251RUzQa5sYnRt40IbcW-23">
          <mxCell style="edgeStyle=none;rounded=0;html=1;entryX=0.5;entryY=0;jettySize=auto;orthogonalLoop=1;strokeColor=#A8A8A8;strokeWidth=2;fontColor=#000000;jumpStyle=none;dashed=1;entryDx=0;entryDy=0;exitX=0.831;exitY=0.989;exitDx=0;exitDy=0;exitPerimeter=0;" edge="1" parent="GrARjp8d3IiTH5JFv-NG-1" source="251RUzQa5sYnRt40IbcW-12" target="251RUzQa5sYnRt40IbcW-1">
            <mxGeometry width="160" relative="1" as="geometry">
              <mxPoint x="737.5" y="390" as="sourcePoint"/>
              <mxPoint x="582.5" y="450" as="targetPoint"/>
            </mxGeometry>
            <C4Relationship as="c4"/>
          </mxCell>
        </object>
        <object label="&lt;div style=&quot;text-align: left&quot;&gt;&lt;div style=&quot;text-align: center&quot;&gt;&lt;b&gt;请求&lt;/b&gt;&lt;/div&gt;&lt;div style=&quot;text-align: center&quot;&gt;[http/json]&lt;/div&gt;&lt;/div&gt;" c4Type="Relationship" c4Description="请求" c4Technology="http/json" id="251RUzQa5sYnRt40IbcW-24">
          <mxCell style="edgeStyle=none;rounded=0;html=1;entryX=0.5;entryY=0;jettySize=auto;orthogonalLoop=1;strokeColor=#A8A8A8;strokeWidth=2;fontColor=#000000;jumpStyle=none;dashed=1;entryDx=0;entryDy=0;exitX=0.805;exitY=0.989;exitDx=0;exitDy=0;exitPerimeter=0;" edge="1" parent="GrARjp8d3IiTH5JFv-NG-1" source="251RUzQa5sYnRt40IbcW-12" target="251RUzQa5sYnRt40IbcW-2">
            <mxGeometry width="160" relative="1" as="geometry">
              <mxPoint x="747.5" y="400" as="sourcePoint"/>
              <mxPoint x="592.5" y="460" as="targetPoint"/>
            </mxGeometry>
            <C4Relationship as="c4"/>
          </mxCell>
        </object>
        <object label="关系数据库&lt;br&gt;&lt;div&gt;[Container:&amp;nbsp;mysql]&lt;/div&gt;&lt;div&gt;&lt;br&gt;&lt;/div&gt;&lt;div&gt;提供筛选，排序，关联多表业务数据&lt;/div&gt;" placeholders="1" c4Type="Database" c4Technology="technology" c4Description="Beschreibung" id="jZFpx7JzCsx9ASeTEWAj-0">
          <mxCell style="shape=cylinder;whiteSpace=wrap;html=1;boundedLbl=1;rounded=0;labelBackgroundColor=none;fillColor=#dae8fc;fontSize=12;fontColor=#000000;align=center;strokeColor=#6c8ebf;" vertex="1" parent="GrARjp8d3IiTH5JFv-NG-1">
            <mxGeometry x="595" y="940" width="160" height="140" as="geometry"/>
            <C4Database as="c4"/>
          </mxCell>
        </object>
        <object label="NoSql&lt;br&gt;&lt;div&gt;[Container:&amp;nbsp;redis]&lt;/div&gt;&lt;div&gt;&lt;br&gt;&lt;/div&gt;&lt;div&gt;提供共享会话管理，热点数据备份，消息队列。&lt;/div&gt;" placeholders="1" c4Type="Database" c4Technology="technology" c4Description="Beschreibung" id="jZFpx7JzCsx9ASeTEWAj-1">
          <mxCell style="shape=cylinder;whiteSpace=wrap;html=1;boundedLbl=1;rounded=0;labelBackgroundColor=none;fillColor=#dae8fc;fontSize=12;fontColor=#000000;align=center;strokeColor=#6c8ebf;" vertex="1" parent="GrARjp8d3IiTH5JFv-NG-1">
            <mxGeometry x="900" y="940" width="160" height="140" as="geometry"/>
            <C4Database as="c4"/>
          </mxCell>
        </object>
        <mxCell id="e8JlbwpFIyx7cshbp3t1-0" value="" style="group" vertex="1" connectable="0" parent="GrARjp8d3IiTH5JFv-NG-1">
          <mxGeometry x="60" y="910" width="210" height="200" as="geometry"/>
        </mxCell>
        <object label="&lt;div style=&quot;text-align: left&quot;&gt;C节点&lt;/div&gt;&lt;div style=&quot;text-align: left&quot;&gt;[ppc or&amp;nbsp;x86]&lt;/div&gt;&lt;div style=&quot;text-align: right&quot;&gt;&lt;br&gt;&lt;/div&gt;" placeholders="1" c4Name="hostname" c4Type="DeploymentNode" c4OperationSystem="operationSystem" c4ScalingFactor="scalingFactor" id="e8JlbwpFIyx7cshbp3t1-1">
          <mxCell style="rounded=1;whiteSpace=wrap;html=1;labelBackgroundColor=none;fillColor=#ffffff;fontColor=#000000;align=left;arcSize=3;strokeColor=#000000;verticalAlign=bottom;" vertex="1" parent="e8JlbwpFIyx7cshbp3t1-0">
            <mxGeometry width="210" height="200" as="geometry"/>
            <C4DeploymentNode as="c4"/>
          </mxCell>
        </object>
        <object label="&lt;div&gt;底层业务服务API&lt;/div&gt;&lt;div&gt;[Software System]&lt;/div&gt;&lt;div&gt;&lt;br&gt;&lt;/div&gt;&lt;div&gt;为web API&amp;nbsp;业务提供数据支持&lt;/div&gt;" placeholders="1" c4Name="name" c4Type="SoftwareSystem" c4Description="Beschreibung" id="e8JlbwpFIyx7cshbp3t1-2">
          <mxCell style="rounded=1;whiteSpace=wrap;html=1;labelBackgroundColor=none;fillColor=#808080;fontColor=#000000;align=center;arcSize=7;strokeColor=#6c8ebf;" vertex="1" parent="e8JlbwpFIyx7cshbp3t1-0">
            <mxGeometry x="40.38461538461539" y="50.4" width="129.23076923076925" height="88" as="geometry"/>
            <C4SoftwareSystem as="c4"/>
          </mxCell>
        </object>
        <object label="&lt;div style=&quot;text-align: left&quot;&gt;&lt;div style=&quot;text-align: center&quot;&gt;&lt;b&gt;调用&lt;/b&gt;&lt;/div&gt;&lt;div style=&quot;text-align: center&quot;&gt;[java ]&lt;/div&gt;&lt;/div&gt;" c4Type="Relationship" c4Description="调用" c4Technology="java " id="e8JlbwpFIyx7cshbp3t1-13">
          <mxCell style="edgeStyle=none;rounded=0;html=1;entryX=0.5;entryY=0;jettySize=auto;orthogonalLoop=1;strokeColor=#A8A8A8;strokeWidth=2;fontColor=#000000;jumpStyle=none;dashed=1;entryDx=0;entryDy=0;exitX=0.5;exitY=1;exitDx=0;exitDy=0;" edge="1" parent="GrARjp8d3IiTH5JFv-NG-1" target="byc4kXjNl2mORgU5l6Cl-12" source="t42CSKTdvGtYABJgcp1a-2">
            <mxGeometry width="160" relative="1" as="geometry">
              <mxPoint x="700" y="500" as="sourcePoint"/>
              <mxPoint x="185" y="570" as="targetPoint"/>
            </mxGeometry>
            <C4Relationship as="c4"/>
          </mxCell>
        </object>
        <object label="&lt;span&gt;websocket 服务&lt;/span&gt;&lt;div&gt;[Component:&amp;nbsp;&lt;span&gt;springboot-websocket netty&lt;/span&gt;&lt;span&gt;]&lt;/span&gt;&lt;/div&gt;&lt;div&gt;&lt;br&gt;&lt;/div&gt;&lt;div&gt;实时数据传输&lt;/div&gt;" placeholders="1" c4Name="websocket 服务" c4Type="Component" c4Technology="springboot-websocket netty" c4Description="实时数据传输" id="e8JlbwpFIyx7cshbp3t1-14">
          <mxCell style="rounded=1;whiteSpace=wrap;html=1;labelBackgroundColor=none;fillColor=#dae8fc;fontColor=#000000;align=center;arcSize=7;strokeColor=#6c8ebf;" vertex="1" parent="GrARjp8d3IiTH5JFv-NG-1">
            <mxGeometry x="-90" y="550" width="150" height="90" as="geometry"/>
            <C4Component as="c4"/>
          </mxCell>
        </object>
        <object label="&lt;span&gt;采集服务&lt;/span&gt;&lt;div&gt;[Component:&amp;nbsp;&lt;span&gt;spring mvc Service&lt;/span&gt;&lt;span&gt;]&lt;/span&gt;&lt;/div&gt;&lt;div&gt;&lt;br&gt;&lt;/div&gt;&lt;div&gt;采集数据&lt;/div&gt;" placeholders="1" c4Name="采集服务" c4Type="Component" c4Technology="spring mvc Service" c4Description="采集数据" id="e8JlbwpFIyx7cshbp3t1-4">
          <mxCell style="rounded=1;whiteSpace=wrap;html=1;labelBackgroundColor=none;fillColor=#dae8fc;fontColor=#000000;align=center;arcSize=7;strokeColor=#6c8ebf;" vertex="1" parent="GrARjp8d3IiTH5JFv-NG-1">
            <mxGeometry x="80" y="730" width="170" height="90" as="geometry"/>
            <C4Component as="c4"/>
          </mxCell>
        </object>
        <mxCell id="e8JlbwpFIyx7cshbp3t1-5" value="" style="group" vertex="1" connectable="0" parent="GrARjp8d3IiTH5JFv-NG-1">
          <mxGeometry x="270" y="550" width="1160" height="90" as="geometry"/>
        </mxCell>
        <object label="&lt;span&gt;日志服务&lt;/span&gt;&lt;div&gt;[Component:&amp;nbsp;&lt;span&gt;spring mvc Service&lt;/span&gt;&lt;span&gt;]&lt;/span&gt;&lt;/div&gt;&lt;div&gt;&lt;br&gt;&lt;/div&gt;&lt;div&gt;&lt;/div&gt;" c4Name="日志服务" c4Type="Component" c4Technology="spring mvc Service" c4Description="" id="e8JlbwpFIyx7cshbp3t1-6">
          <mxCell style="rounded=1;whiteSpace=wrap;html=1;labelBackgroundColor=none;fillColor=#dae8fc;fontColor=#000000;align=center;arcSize=7;strokeColor=#6c8ebf;" vertex="1" parent="e8JlbwpFIyx7cshbp3t1-5">
            <mxGeometry width="150" height="90" as="geometry"/>
            <C4Component as="c4"/>
          </mxCell>
        </object>
        <object label="&lt;span&gt;监控服务&lt;/span&gt;&lt;div&gt;[Component:&amp;nbsp;&lt;span&gt;spring mvc Service&lt;/span&gt;&lt;span&gt;]&lt;/span&gt;&lt;/div&gt;&lt;div&gt;&lt;br&gt;&lt;/div&gt;&lt;div&gt;&lt;/div&gt;" c4Name="监控服务" c4Type="Component" c4Technology="spring mvc Service" c4Description="" id="e8JlbwpFIyx7cshbp3t1-7">
          <mxCell style="rounded=1;whiteSpace=wrap;html=1;labelBackgroundColor=none;fillColor=#dae8fc;fontColor=#000000;align=center;arcSize=7;strokeColor=#6c8ebf;" vertex="1" parent="e8JlbwpFIyx7cshbp3t1-5">
            <mxGeometry x="170" width="150" height="90" as="geometry"/>
            <C4Component as="c4"/>
          </mxCell>
        </object>
        <object label="&lt;span&gt;告警服务&lt;/span&gt;&lt;div&gt;[Component:&amp;nbsp;&lt;span&gt;spring mvc service&lt;/span&gt;&lt;span&gt;]&lt;/span&gt;&lt;/div&gt;&lt;div&gt;&lt;br&gt;&lt;/div&gt;&lt;div&gt;&lt;/div&gt;" c4Name="告警服务" c4Type="Component" c4Technology="spring mvc service" c4Description="" id="e8JlbwpFIyx7cshbp3t1-8">
          <mxCell style="rounded=1;whiteSpace=wrap;html=1;labelBackgroundColor=none;fillColor=#dae8fc;fontColor=#000000;align=center;arcSize=7;strokeColor=#6c8ebf;" vertex="1" parent="e8JlbwpFIyx7cshbp3t1-5">
            <mxGeometry x="340" width="150" height="90" as="geometry"/>
            <C4Component as="c4"/>
          </mxCell>
        </object>
        <object label="&lt;span&gt;业务服务&lt;/span&gt;&lt;div&gt;[Component:&amp;nbsp;&lt;span&gt;spring mvc 服务&lt;/span&gt;&lt;span&gt;]&lt;/span&gt;&lt;/div&gt;&lt;div&gt;&lt;br&gt;&lt;/div&gt;&lt;div&gt;&lt;/div&gt;" c4Name="业务服务" c4Type="Component" c4Technology="spring mvc 服务" c4Description="" id="e8JlbwpFIyx7cshbp3t1-9">
          <mxCell style="rounded=1;whiteSpace=wrap;html=1;labelBackgroundColor=none;fillColor=#dae8fc;fontColor=#000000;align=center;arcSize=7;strokeColor=#6c8ebf;" vertex="1" parent="e8JlbwpFIyx7cshbp3t1-5">
            <mxGeometry x="510" width="150" height="90" as="geometry"/>
            <C4Component as="c4"/>
          </mxCell>
        </object>
        <object label="&lt;span&gt;网元服务&lt;/span&gt;&lt;div&gt;[Component:&amp;nbsp;&lt;span&gt;spring mvc service&lt;/span&gt;&lt;span&gt;]&lt;/span&gt;&lt;/div&gt;&lt;div&gt;&lt;br&gt;&lt;/div&gt;&lt;div&gt;&lt;/div&gt;" c4Name="网元服务" c4Type="Component" c4Technology="spring mvc service" c4Description="" id="e8JlbwpFIyx7cshbp3t1-10">
          <mxCell style="rounded=1;whiteSpace=wrap;html=1;labelBackgroundColor=none;fillColor=#dae8fc;fontColor=#000000;align=center;arcSize=7;strokeColor=#6c8ebf;" vertex="1" parent="e8JlbwpFIyx7cshbp3t1-5">
            <mxGeometry x="680" width="150" height="90" as="geometry"/>
            <C4Component as="c4"/>
          </mxCell>
        </object>
        <object label="&lt;span&gt;拓扑服务&lt;/span&gt;&lt;div&gt;[Component:&amp;nbsp;&lt;span&gt;spring mvc service&lt;/span&gt;&lt;span&gt;]&lt;/span&gt;&lt;/div&gt;&lt;div&gt;&lt;br&gt;&lt;/div&gt;&lt;div&gt;&lt;/div&gt;" c4Name="拓扑服务" c4Type="Component" c4Technology="spring mvc service" c4Description="" id="e8JlbwpFIyx7cshbp3t1-11">
          <mxCell style="rounded=1;whiteSpace=wrap;html=1;labelBackgroundColor=none;fillColor=#dae8fc;fontColor=#000000;align=center;arcSize=7;strokeColor=#6c8ebf;" vertex="1" parent="e8JlbwpFIyx7cshbp3t1-5">
            <mxGeometry x="850" width="150" height="90" as="geometry"/>
            <C4Component as="c4"/>
          </mxCell>
        </object>
        <object label="&lt;span&gt;权限服务&lt;/span&gt;&lt;div&gt;[Component:&amp;nbsp;&lt;span&gt;spring mvc service&lt;/span&gt;&lt;span&gt;]&lt;/span&gt;&lt;/div&gt;&lt;div&gt;&lt;br&gt;&lt;/div&gt;&lt;div&gt;&lt;/div&gt;" c4Name="权限服务" c4Type="Component" c4Technology="spring mvc service" c4Description="" id="e8JlbwpFIyx7cshbp3t1-12">
          <mxCell style="rounded=1;whiteSpace=wrap;html=1;labelBackgroundColor=none;fillColor=#dae8fc;fontColor=#000000;align=center;arcSize=7;strokeColor=#6c8ebf;" vertex="1" parent="e8JlbwpFIyx7cshbp3t1-5">
            <mxGeometry x="1010" width="150" height="90" as="geometry"/>
            <C4Component as="c4"/>
          </mxCell>
        </object>
        <object label="&lt;div style=&quot;text-align: left&quot;&gt;&lt;div style=&quot;text-align: center&quot;&gt;&lt;b&gt;调用&lt;/b&gt;&lt;/div&gt;&lt;div style=&quot;text-align: center&quot;&gt;[java ]&lt;/div&gt;&lt;/div&gt;" c4Type="Relationship" c4Description="调用" c4Technology="java " id="byc4kXjNl2mORgU5l6Cl-0">
          <mxCell style="edgeStyle=none;rounded=0;html=1;jettySize=auto;orthogonalLoop=1;strokeColor=#A8A8A8;strokeWidth=2;fontColor=#000000;jumpStyle=none;dashed=1;exitX=0.5;exitY=1;exitDx=0;exitDy=0;" edge="1" parent="GrARjp8d3IiTH5JFv-NG-1" source="uVbP3ezxf3-u4zwm14uK-0" target="e8JlbwpFIyx7cshbp3t1-6">
            <mxGeometry width="160" relative="1" as="geometry">
              <mxPoint x="175" y="510" as="sourcePoint"/>
              <mxPoint x="175" y="690" as="targetPoint"/>
            </mxGeometry>
            <C4Relationship as="c4"/>
          </mxCell>
        </object>
        <object label="&lt;div style=&quot;text-align: left&quot;&gt;&lt;div style=&quot;text-align: center&quot;&gt;&lt;b&gt;调用&lt;/b&gt;&lt;/div&gt;&lt;div style=&quot;text-align: center&quot;&gt;[java ]&lt;/div&gt;&lt;/div&gt;" c4Type="Relationship" c4Description="调用" c4Technology="java " id="byc4kXjNl2mORgU5l6Cl-1">
          <mxCell style="edgeStyle=none;rounded=0;html=1;jettySize=auto;orthogonalLoop=1;strokeColor=#A8A8A8;strokeWidth=2;fontColor=#000000;jumpStyle=none;dashed=1;exitX=0.5;exitY=1;exitDx=0;exitDy=0;" edge="1" parent="GrARjp8d3IiTH5JFv-NG-1" source="uVbP3ezxf3-u4zwm14uK-1" target="e8JlbwpFIyx7cshbp3t1-7">
            <mxGeometry width="160" relative="1" as="geometry">
              <mxPoint x="185" y="520" as="sourcePoint"/>
              <mxPoint x="185" y="700" as="targetPoint"/>
            </mxGeometry>
            <C4Relationship as="c4"/>
          </mxCell>
        </object>
        <object label="&lt;div style=&quot;text-align: left&quot;&gt;&lt;div style=&quot;text-align: center&quot;&gt;&lt;b&gt;调用&lt;/b&gt;&lt;/div&gt;&lt;div style=&quot;text-align: center&quot;&gt;[java ]&lt;/div&gt;&lt;/div&gt;" c4Type="Relationship" c4Description="调用" c4Technology="java " id="byc4kXjNl2mORgU5l6Cl-2">
          <mxCell style="edgeStyle=none;rounded=0;html=1;jettySize=auto;orthogonalLoop=1;strokeColor=#A8A8A8;strokeWidth=2;fontColor=#000000;jumpStyle=none;dashed=1;exitX=0.5;exitY=1;exitDx=0;exitDy=0;" edge="1" parent="GrARjp8d3IiTH5JFv-NG-1" source="uVbP3ezxf3-u4zwm14uK-2" target="e8JlbwpFIyx7cshbp3t1-8">
            <mxGeometry width="160" relative="1" as="geometry">
              <mxPoint x="195" y="530" as="sourcePoint"/>
              <mxPoint x="195" y="710" as="targetPoint"/>
            </mxGeometry>
            <C4Relationship as="c4"/>
          </mxCell>
        </object>
        <object label="&lt;div style=&quot;text-align: left&quot;&gt;&lt;div style=&quot;text-align: center&quot;&gt;&lt;b&gt;调用&lt;/b&gt;&lt;/div&gt;&lt;div style=&quot;text-align: center&quot;&gt;[java ]&lt;/div&gt;&lt;/div&gt;" c4Type="Relationship" c4Description="调用" c4Technology="java " id="byc4kXjNl2mORgU5l6Cl-3">
          <mxCell style="edgeStyle=none;rounded=0;html=1;jettySize=auto;orthogonalLoop=1;strokeColor=#A8A8A8;strokeWidth=2;fontColor=#000000;jumpStyle=none;dashed=1;exitX=0.5;exitY=1;exitDx=0;exitDy=0;" edge="1" parent="GrARjp8d3IiTH5JFv-NG-1" source="uVbP3ezxf3-u4zwm14uK-3" target="e8JlbwpFIyx7cshbp3t1-9">
            <mxGeometry width="160" relative="1" as="geometry">
              <mxPoint x="205" y="540" as="sourcePoint"/>
              <mxPoint x="205" y="720" as="targetPoint"/>
            </mxGeometry>
            <C4Relationship as="c4"/>
          </mxCell>
        </object>
        <object label="&lt;div style=&quot;text-align: left&quot;&gt;&lt;div style=&quot;text-align: center&quot;&gt;&lt;b&gt;调用&lt;/b&gt;&lt;/div&gt;&lt;div style=&quot;text-align: center&quot;&gt;[java ]&lt;/div&gt;&lt;/div&gt;" c4Type="Relationship" c4Description="调用" c4Technology="java " id="byc4kXjNl2mORgU5l6Cl-4">
          <mxCell style="edgeStyle=none;rounded=0;html=1;jettySize=auto;orthogonalLoop=1;strokeColor=#A8A8A8;strokeWidth=2;fontColor=#000000;jumpStyle=none;dashed=1;exitX=0.573;exitY=0.989;exitDx=0;exitDy=0;exitPerimeter=0;" edge="1" parent="GrARjp8d3IiTH5JFv-NG-1" source="251RUzQa5sYnRt40IbcW-0" target="e8JlbwpFIyx7cshbp3t1-10">
            <mxGeometry width="160" relative="1" as="geometry">
              <mxPoint x="215" y="550" as="sourcePoint"/>
              <mxPoint x="215" y="730" as="targetPoint"/>
            </mxGeometry>
            <C4Relationship as="c4"/>
          </mxCell>
        </object>
        <object label="&lt;div style=&quot;text-align: left&quot;&gt;&lt;div style=&quot;text-align: center&quot;&gt;&lt;b&gt;调用&lt;/b&gt;&lt;/div&gt;&lt;div style=&quot;text-align: center&quot;&gt;[java ]&lt;/div&gt;&lt;/div&gt;" c4Type="Relationship" c4Description="调用" c4Technology="java " id="byc4kXjNl2mORgU5l6Cl-5">
          <mxCell style="edgeStyle=none;rounded=0;html=1;entryX=0.5;entryY=0;jettySize=auto;orthogonalLoop=1;strokeColor=#A8A8A8;strokeWidth=2;fontColor=#000000;jumpStyle=none;dashed=1;entryDx=0;entryDy=0;exitX=0.5;exitY=1;exitDx=0;exitDy=0;" edge="1" parent="GrARjp8d3IiTH5JFv-NG-1" source="251RUzQa5sYnRt40IbcW-1" target="e8JlbwpFIyx7cshbp3t1-11">
            <mxGeometry width="160" relative="1" as="geometry">
              <mxPoint x="225" y="560" as="sourcePoint"/>
              <mxPoint x="225" y="740" as="targetPoint"/>
            </mxGeometry>
            <C4Relationship as="c4"/>
          </mxCell>
        </object>
        <object label="&lt;div style=&quot;text-align: left&quot;&gt;&lt;div style=&quot;text-align: center&quot;&gt;&lt;b&gt;调用&lt;/b&gt;&lt;/div&gt;&lt;div style=&quot;text-align: center&quot;&gt;[java ]&lt;/div&gt;&lt;/div&gt;" c4Type="Relationship" c4Description="调用" c4Technology="java " id="byc4kXjNl2mORgU5l6Cl-6">
          <mxCell style="edgeStyle=none;rounded=0;html=1;entryX=0.5;entryY=0;jettySize=auto;orthogonalLoop=1;strokeColor=#A8A8A8;strokeWidth=2;fontColor=#000000;jumpStyle=none;dashed=1;entryDx=0;entryDy=0;exitX=0.5;exitY=1;exitDx=0;exitDy=0;" edge="1" parent="GrARjp8d3IiTH5JFv-NG-1" source="251RUzQa5sYnRt40IbcW-2" target="e8JlbwpFIyx7cshbp3t1-12">
            <mxGeometry width="160" relative="1" as="geometry">
              <mxPoint x="235" y="570" as="sourcePoint"/>
              <mxPoint x="235" y="750" as="targetPoint"/>
            </mxGeometry>
            <C4Relationship as="c4"/>
          </mxCell>
        </object>
        <object label="&lt;div style=&quot;text-align: left&quot;&gt;&lt;div style=&quot;text-align: center&quot;&gt;&lt;b&gt;调用&lt;/b&gt;&lt;/div&gt;&lt;div style=&quot;text-align: center&quot;&gt;[java ]&lt;/div&gt;&lt;/div&gt;" c4Type="Relationship" c4Description="调用" c4Technology="java " id="byc4kXjNl2mORgU5l6Cl-7">
          <mxCell style="edgeStyle=none;rounded=0;html=1;entryX=0.75;entryY=0;jettySize=auto;orthogonalLoop=1;strokeColor=#A8A8A8;strokeWidth=2;fontColor=#000000;jumpStyle=none;dashed=1;entryDx=0;entryDy=0;exitX=0.5;exitY=1;exitDx=0;exitDy=0;" edge="1" parent="GrARjp8d3IiTH5JFv-NG-1" source="251RUzQa5sYnRt40IbcW-1" target="e8JlbwpFIyx7cshbp3t1-10">
            <mxGeometry width="160" relative="1" as="geometry">
              <mxPoint x="245" y="580" as="sourcePoint"/>
              <mxPoint x="245" y="760" as="targetPoint"/>
            </mxGeometry>
            <C4Relationship as="c4"/>
          </mxCell>
        </object>
        <object label="单页web&lt;br&gt;&lt;div&gt;[Container: websocket&lt;span&gt;]&lt;/span&gt;&lt;/div&gt;&lt;div&gt;&lt;br&gt;&lt;/div&gt;&lt;div&gt;单页websocket通信&lt;/div&gt;" placeholders="1" c4Name="name" c4Type="Container" c4Technology="technology" c4Description="Beschreibung" id="byc4kXjNl2mORgU5l6Cl-8">
          <mxCell style="rounded=1;whiteSpace=wrap;html=1;labelBackgroundColor=none;fillColor=#dae8fc;fontColor=#000000;align=center;arcSize=6;strokeColor=#6c8ebf;" vertex="1" parent="GrARjp8d3IiTH5JFv-NG-1">
            <mxGeometry x="10" y="80" width="160" height="110" as="geometry"/>
            <C4Container as="c4"/>
          </mxCell>
        </object>
        <object label="&lt;div style=&quot;text-align: left&quot;&gt;&lt;div style=&quot;text-align: center&quot;&gt;&lt;b&gt;连接&lt;/b&gt;&lt;/div&gt;&lt;div style=&quot;text-align: center&quot;&gt;[ws/wss]&lt;/div&gt;&lt;/div&gt;" c4Type="Relationship" c4Description="连接" c4Technology="ws/wss" id="byc4kXjNl2mORgU5l6Cl-9">
          <mxCell style="edgeStyle=none;rounded=0;html=1;entryX=0.5;entryY=0;jettySize=auto;orthogonalLoop=1;strokeColor=#A8A8A8;strokeWidth=2;fontColor=#000000;jumpStyle=none;dashed=1;exitX=0.5;exitY=1;exitDx=0;exitDy=0;entryDx=0;entryDy=0;" edge="1" parent="GrARjp8d3IiTH5JFv-NG-1" source="byc4kXjNl2mORgU5l6Cl-8" target="e8JlbwpFIyx7cshbp3t1-14">
            <mxGeometry width="160" relative="1" as="geometry">
              <mxPoint x="310" y="210" as="sourcePoint"/>
              <mxPoint x="470" y="210" as="targetPoint"/>
            </mxGeometry>
            <C4Relationship as="c4"/>
          </mxCell>
        </object>
        <object label="&lt;div style=&quot;text-align: left&quot;&gt;&lt;div style=&quot;text-align: center&quot;&gt;&lt;b&gt;连接&lt;/b&gt;&lt;/div&gt;&lt;div style=&quot;text-align: center&quot;&gt;[socket netty ]&lt;/div&gt;&lt;/div&gt;" c4Type="Relationship" c4Description="连接" c4Technology="socket netty " id="byc4kXjNl2mORgU5l6Cl-10">
          <mxCell style="edgeStyle=none;rounded=0;html=1;entryX=0.5;entryY=0;jettySize=auto;orthogonalLoop=1;strokeColor=#A8A8A8;strokeWidth=2;fontColor=#000000;jumpStyle=none;dashed=1;exitX=0.5;exitY=1;exitDx=0;exitDy=0;entryDx=0;entryDy=0;" edge="1" parent="GrARjp8d3IiTH5JFv-NG-1" source="e8JlbwpFIyx7cshbp3t1-4" target="e8JlbwpFIyx7cshbp3t1-1">
            <mxGeometry width="160" relative="1" as="geometry">
              <mxPoint x="190" y="770" as="sourcePoint"/>
              <mxPoint x="350" y="770" as="targetPoint"/>
            </mxGeometry>
            <C4Relationship as="c4"/>
          </mxCell>
        </object>
        <object label="&lt;div style=&quot;text-align: left&quot;&gt;&lt;div style=&quot;text-align: center&quot;&gt;&lt;b&gt;转存储数据&lt;/b&gt;&lt;/div&gt;&lt;div style=&quot;text-align: center&quot;&gt;[jdbc ]&lt;/div&gt;&lt;/div&gt;" c4Type="Relationship" c4Description="转存储数据" c4Technology="jdbc " id="byc4kXjNl2mORgU5l6Cl-11">
          <mxCell style="edgeStyle=none;rounded=0;html=1;jettySize=auto;orthogonalLoop=1;strokeColor=#A8A8A8;strokeWidth=2;fontColor=#000000;jumpStyle=none;dashed=1;exitX=1;exitY=0.5;exitDx=0;exitDy=0;entryX=0.5;entryY=0;entryDx=0;entryDy=0;" edge="1" parent="GrARjp8d3IiTH5JFv-NG-1" source="e8JlbwpFIyx7cshbp3t1-4" target="jZFpx7JzCsx9ASeTEWAj-0">
            <mxGeometry width="160" relative="1" as="geometry">
              <mxPoint x="260" y="680" as="sourcePoint"/>
              <mxPoint x="410" y="680" as="targetPoint"/>
            </mxGeometry>
            <C4Relationship as="c4"/>
          </mxCell>
        </object>
        <object label="&lt;span&gt;性能服务&lt;/span&gt;&lt;div&gt;[Component:&amp;nbsp;&lt;span&gt;spring mvc Service&lt;/span&gt;&lt;span&gt;]&lt;/span&gt;&lt;/div&gt;&lt;div&gt;&lt;br&gt;&lt;/div&gt;&lt;div&gt;提供历史性能数据&lt;/div&gt;" placeholders="1" c4Name="性能服务" c4Type="Component" c4Technology="spring mvc Service" c4Description="提供历史性能数据" id="byc4kXjNl2mORgU5l6Cl-12">
          <mxCell style="rounded=1;whiteSpace=wrap;html=1;labelBackgroundColor=none;fillColor=#dae8fc;fontColor=#000000;align=center;arcSize=7;strokeColor=#6c8ebf;" vertex="1" parent="GrARjp8d3IiTH5JFv-NG-1">
            <mxGeometry x="80" y="550" width="170" height="90" as="geometry"/>
            <C4Component as="c4"/>
          </mxCell>
        </object>
        <object label="&lt;div style=&quot;text-align: left&quot;&gt;&lt;div style=&quot;text-align: center&quot;&gt;&lt;b&gt;转存储数据&lt;/b&gt;&lt;/div&gt;&lt;div style=&quot;text-align: center&quot;&gt;[ Lettuce]&lt;/div&gt;&lt;/div&gt;" c4Type="Relationship" c4Description="转存储数据" c4Technology=" Lettuce" id="byc4kXjNl2mORgU5l6Cl-13">
          <mxCell style="edgeStyle=none;rounded=0;html=1;jettySize=auto;orthogonalLoop=1;strokeColor=#A8A8A8;strokeWidth=2;fontColor=#000000;jumpStyle=none;dashed=1;exitX=1;exitY=0.25;exitDx=0;exitDy=0;entryX=0.15;entryY=0.05;entryDx=0;entryDy=0;entryPerimeter=0;" edge="1" parent="GrARjp8d3IiTH5JFv-NG-1" source="e8JlbwpFIyx7cshbp3t1-4" target="jZFpx7JzCsx9ASeTEWAj-1">
            <mxGeometry width="160" relative="1" as="geometry">
              <mxPoint x="260" y="785" as="sourcePoint"/>
              <mxPoint x="685" y="950" as="targetPoint"/>
            </mxGeometry>
            <C4Relationship as="c4"/>
          </mxCell>
        </object>
        <object label="&lt;div style=&quot;text-align: left&quot;&gt;&lt;div style=&quot;text-align: center&quot;&gt;&lt;b&gt;实时数据转发&lt;/b&gt;&lt;/div&gt;&lt;div style=&quot;text-align: center&quot;&gt;[java]&lt;/div&gt;&lt;/div&gt;" c4Type="Relationship" c4Description="实时数据转发" c4Technology="java" id="OIzn0KwoGllP4OvUnmKh-0">
          <mxCell style="edgeStyle=none;rounded=0;html=1;jettySize=auto;orthogonalLoop=1;strokeColor=#A8A8A8;strokeWidth=2;fontColor=#000000;jumpStyle=none;dashed=1;exitX=0;exitY=0.25;exitDx=0;exitDy=0;entryX=0.5;entryY=1;entryDx=0;entryDy=0;" edge="1" parent="GrARjp8d3IiTH5JFv-NG-1" source="e8JlbwpFIyx7cshbp3t1-4" target="e8JlbwpFIyx7cshbp3t1-14">
            <mxGeometry width="160" relative="1" as="geometry">
              <mxPoint x="-40" y="670" as="sourcePoint"/>
              <mxPoint x="120" y="680" as="targetPoint"/>
            </mxGeometry>
            <C4Relationship as="c4"/>
          </mxCell>
        </object>
        <object label="&lt;span&gt;orm&lt;/span&gt;&lt;div&gt;[Component:&amp;nbsp;&lt;span&gt;mybatisplus/lettuce&lt;/span&gt;&lt;span&gt;]&lt;/span&gt;&lt;/div&gt;&lt;div&gt;&lt;br&gt;&lt;/div&gt;&lt;div&gt;读取，存储数据&lt;/div&gt;" placeholders="1" c4Name="orm" c4Type="Component" c4Technology="mybatisplus/lettuce" c4Description="读取，存储数据" id="OIzn0KwoGllP4OvUnmKh-1">
          <mxCell style="rounded=1;whiteSpace=wrap;html=1;labelBackgroundColor=none;fillColor=#dae8fc;fontColor=#000000;align=center;arcSize=7;strokeColor=#6c8ebf;" vertex="1" parent="GrARjp8d3IiTH5JFv-NG-1">
            <mxGeometry x="680" y="710" width="280" height="110" as="geometry"/>
            <C4Component as="c4"/>
          </mxCell>
        </object>
        <object label="&lt;div style=&quot;text-align: left&quot;&gt;&lt;div style=&quot;text-align: center&quot;&gt;&lt;b&gt;调用&lt;/b&gt;&lt;/div&gt;&lt;div style=&quot;text-align: center&quot;&gt;[mapper]&lt;/div&gt;&lt;/div&gt;" c4Type="Relationship" c4Description="调用" c4Technology="mapper" id="OIzn0KwoGllP4OvUnmKh-2">
          <mxCell style="edgeStyle=none;rounded=0;html=1;entryX=0;entryY=0.5;jettySize=auto;orthogonalLoop=1;strokeColor=#A8A8A8;strokeWidth=2;fontColor=#000000;jumpStyle=none;dashed=1;exitX=0.75;exitY=1;exitDx=0;exitDy=0;entryDx=0;entryDy=0;" edge="1" parent="GrARjp8d3IiTH5JFv-NG-1" source="byc4kXjNl2mORgU5l6Cl-12" target="OIzn0KwoGllP4OvUnmKh-1">
            <mxGeometry width="160" relative="1" as="geometry">
              <mxPoint x="340" y="690" as="sourcePoint"/>
              <mxPoint x="500" y="690" as="targetPoint"/>
            </mxGeometry>
            <C4Relationship as="c4"/>
          </mxCell>
        </object>
        <object label="&lt;div style=&quot;text-align: left&quot;&gt;&lt;div style=&quot;text-align: center&quot;&gt;&lt;b&gt;调用&lt;/b&gt;&lt;/div&gt;&lt;div style=&quot;text-align: center&quot;&gt;[mapper]&lt;/div&gt;&lt;/div&gt;" c4Type="Relationship" c4Description="调用" c4Technology="mapper" id="OIzn0KwoGllP4OvUnmKh-3">
          <mxCell style="edgeStyle=none;rounded=0;html=1;entryX=0;entryY=0.25;jettySize=auto;orthogonalLoop=1;strokeColor=#A8A8A8;strokeWidth=2;fontColor=#000000;jumpStyle=none;dashed=1;exitX=0.5;exitY=1;exitDx=0;exitDy=0;entryDx=0;entryDy=0;" edge="1" parent="GrARjp8d3IiTH5JFv-NG-1" source="e8JlbwpFIyx7cshbp3t1-6" target="OIzn0KwoGllP4OvUnmKh-1">
            <mxGeometry width="160" relative="1" as="geometry">
              <mxPoint x="217.5" y="650" as="sourcePoint"/>
              <mxPoint x="690" y="775" as="targetPoint"/>
            </mxGeometry>
            <C4Relationship as="c4"/>
          </mxCell>
        </object>
        <object label="&lt;div style=&quot;text-align: left&quot;&gt;&lt;div style=&quot;text-align: center&quot;&gt;&lt;b&gt;调用&lt;/b&gt;&lt;/div&gt;&lt;div style=&quot;text-align: center&quot;&gt;[mapper]&lt;/div&gt;&lt;/div&gt;" c4Type="Relationship" c4Description="调用" c4Technology="mapper" id="OIzn0KwoGllP4OvUnmKh-4">
          <mxCell style="edgeStyle=none;rounded=0;html=1;entryX=0;entryY=0.25;jettySize=auto;orthogonalLoop=1;strokeColor=#A8A8A8;strokeWidth=2;fontColor=#000000;jumpStyle=none;dashed=1;exitX=0.5;exitY=1;exitDx=0;exitDy=0;entryDx=0;entryDy=0;" edge="1" parent="GrARjp8d3IiTH5JFv-NG-1" source="e8JlbwpFIyx7cshbp3t1-7" target="OIzn0KwoGllP4OvUnmKh-1">
            <mxGeometry width="160" relative="1" as="geometry">
              <mxPoint x="227.5" y="660" as="sourcePoint"/>
              <mxPoint x="700" y="785" as="targetPoint"/>
            </mxGeometry>
            <C4Relationship as="c4"/>
          </mxCell>
        </object>
        <object label="&lt;div style=&quot;text-align: left&quot;&gt;&lt;div style=&quot;text-align: center&quot;&gt;&lt;b&gt;调用&lt;/b&gt;&lt;/div&gt;&lt;div style=&quot;text-align: center&quot;&gt;[mapper]&lt;/div&gt;&lt;/div&gt;" c4Type="Relationship" c4Description="调用" c4Technology="mapper" id="OIzn0KwoGllP4OvUnmKh-5">
          <mxCell style="edgeStyle=none;rounded=0;html=1;entryX=0.25;entryY=0;jettySize=auto;orthogonalLoop=1;strokeColor=#A8A8A8;strokeWidth=2;fontColor=#000000;jumpStyle=none;dashed=1;exitX=0.5;exitY=1;exitDx=0;exitDy=0;entryDx=0;entryDy=0;" edge="1" parent="GrARjp8d3IiTH5JFv-NG-1" source="e8JlbwpFIyx7cshbp3t1-8" target="OIzn0KwoGllP4OvUnmKh-1">
            <mxGeometry width="160" relative="1" as="geometry">
              <mxPoint x="237.5" y="670" as="sourcePoint"/>
              <mxPoint x="710" y="795" as="targetPoint"/>
            </mxGeometry>
            <C4Relationship as="c4"/>
          </mxCell>
        </object>
        <object label="&lt;div style=&quot;text-align: left&quot;&gt;&lt;div style=&quot;text-align: center&quot;&gt;&lt;b&gt;调用&lt;/b&gt;&lt;/div&gt;&lt;div style=&quot;text-align: center&quot;&gt;[mapper]&lt;/div&gt;&lt;/div&gt;" c4Type="Relationship" c4Description="调用" c4Technology="mapper" id="OIzn0KwoGllP4OvUnmKh-6">
          <mxCell style="edgeStyle=none;rounded=0;html=1;entryX=0.5;entryY=0;jettySize=auto;orthogonalLoop=1;strokeColor=#A8A8A8;strokeWidth=2;fontColor=#000000;jumpStyle=none;dashed=1;exitX=0.5;exitY=1;exitDx=0;exitDy=0;entryDx=0;entryDy=0;" edge="1" parent="GrARjp8d3IiTH5JFv-NG-1" source="e8JlbwpFIyx7cshbp3t1-9" target="OIzn0KwoGllP4OvUnmKh-1">
            <mxGeometry width="160" relative="1" as="geometry">
              <mxPoint x="247.5" y="680" as="sourcePoint"/>
              <mxPoint x="720" y="805" as="targetPoint"/>
            </mxGeometry>
            <C4Relationship as="c4"/>
          </mxCell>
        </object>
        <object label="&lt;div style=&quot;text-align: left&quot;&gt;&lt;div style=&quot;text-align: center&quot;&gt;&lt;b&gt;调用&lt;/b&gt;&lt;/div&gt;&lt;div style=&quot;text-align: center&quot;&gt;[mapper]&lt;/div&gt;&lt;/div&gt;" c4Type="Relationship" c4Description="调用" c4Technology="mapper" id="OIzn0KwoGllP4OvUnmKh-7">
          <mxCell style="edgeStyle=none;rounded=0;html=1;entryX=0.75;entryY=0;jettySize=auto;orthogonalLoop=1;strokeColor=#A8A8A8;strokeWidth=2;fontColor=#000000;jumpStyle=none;dashed=1;exitX=0.5;exitY=1;exitDx=0;exitDy=0;entryDx=0;entryDy=0;" edge="1" parent="GrARjp8d3IiTH5JFv-NG-1" source="e8JlbwpFIyx7cshbp3t1-10" target="OIzn0KwoGllP4OvUnmKh-1">
            <mxGeometry width="160" relative="1" as="geometry">
              <mxPoint x="257.5" y="690" as="sourcePoint"/>
              <mxPoint x="730" y="815" as="targetPoint"/>
            </mxGeometry>
            <C4Relationship as="c4"/>
          </mxCell>
        </object>
        <object label="&lt;div style=&quot;text-align: left&quot;&gt;&lt;div style=&quot;text-align: center&quot;&gt;&lt;b&gt;调用&lt;/b&gt;&lt;/div&gt;&lt;div style=&quot;text-align: center&quot;&gt;[mapper]&lt;/div&gt;&lt;/div&gt;" c4Type="Relationship" c4Description="调用" c4Technology="mapper" id="OIzn0KwoGllP4OvUnmKh-8">
          <mxCell style="edgeStyle=none;rounded=0;html=1;entryX=1;entryY=0.25;jettySize=auto;orthogonalLoop=1;strokeColor=#A8A8A8;strokeWidth=2;fontColor=#000000;jumpStyle=none;dashed=1;exitX=0.5;exitY=1;exitDx=0;exitDy=0;entryDx=0;entryDy=0;" edge="1" parent="GrARjp8d3IiTH5JFv-NG-1" source="e8JlbwpFIyx7cshbp3t1-11" target="OIzn0KwoGllP4OvUnmKh-1">
            <mxGeometry width="160" relative="1" as="geometry">
              <mxPoint x="267.5" y="700" as="sourcePoint"/>
              <mxPoint x="740" y="825" as="targetPoint"/>
            </mxGeometry>
            <C4Relationship as="c4"/>
          </mxCell>
        </object>
        <object label="&lt;div style=&quot;text-align: left&quot;&gt;&lt;div style=&quot;text-align: center&quot;&gt;&lt;b&gt;调用&lt;/b&gt;&lt;/div&gt;&lt;div style=&quot;text-align: center&quot;&gt;[mapper]&lt;/div&gt;&lt;/div&gt;" c4Type="Relationship" c4Description="调用" c4Technology="mapper" id="OIzn0KwoGllP4OvUnmKh-9">
          <mxCell style="edgeStyle=none;rounded=0;html=1;entryX=1;entryY=0.5;jettySize=auto;orthogonalLoop=1;strokeColor=#A8A8A8;strokeWidth=2;fontColor=#000000;jumpStyle=none;dashed=1;exitX=0.5;exitY=1;exitDx=0;exitDy=0;entryDx=0;entryDy=0;" edge="1" parent="GrARjp8d3IiTH5JFv-NG-1" source="e8JlbwpFIyx7cshbp3t1-12" target="OIzn0KwoGllP4OvUnmKh-1">
            <mxGeometry width="160" relative="1" as="geometry">
              <mxPoint x="277.5" y="710" as="sourcePoint"/>
              <mxPoint x="750" y="835" as="targetPoint"/>
            </mxGeometry>
            <C4Relationship as="c4"/>
          </mxCell>
        </object>
        <object label="&lt;div style=&quot;text-align: left&quot;&gt;&lt;div style=&quot;text-align: center&quot;&gt;&lt;b&gt;读取，存取&lt;/b&gt;&lt;/div&gt;&lt;div style=&quot;text-align: center&quot;&gt;[ Lettuce]&lt;/div&gt;&lt;/div&gt;" c4Type="Relationship" c4Description="读取，存取" c4Technology=" Lettuce" id="OIzn0KwoGllP4OvUnmKh-10">
          <mxCell style="edgeStyle=none;rounded=0;html=1;jettySize=auto;orthogonalLoop=1;strokeColor=#A8A8A8;strokeWidth=2;fontColor=#000000;jumpStyle=none;dashed=1;exitX=0.75;exitY=1;exitDx=0;exitDy=0;entryX=0.5;entryY=0;entryDx=0;entryDy=0;" edge="1" parent="GrARjp8d3IiTH5JFv-NG-1" source="OIzn0KwoGllP4OvUnmKh-1" target="jZFpx7JzCsx9ASeTEWAj-1">
            <mxGeometry width="160" relative="1" as="geometry">
              <mxPoint x="260" y="762.5" as="sourcePoint"/>
              <mxPoint x="934" y="957" as="targetPoint"/>
            </mxGeometry>
            <C4Relationship as="c4"/>
          </mxCell>
        </object>
        <object label="&lt;div style=&quot;text-align: left&quot;&gt;&lt;div style=&quot;text-align: center&quot;&gt;&lt;b&gt;读取，存储&lt;/b&gt;&lt;/div&gt;&lt;div style=&quot;text-align: center&quot;&gt;[jdbc ]&lt;/div&gt;&lt;/div&gt;" c4Type="Relationship" c4Description="读取，存储" c4Technology="jdbc " id="OIzn0KwoGllP4OvUnmKh-11">
          <mxCell style="edgeStyle=none;rounded=0;html=1;jettySize=auto;orthogonalLoop=1;strokeColor=#A8A8A8;strokeWidth=2;fontColor=#000000;jumpStyle=none;dashed=1;exitX=0.25;exitY=1;exitDx=0;exitDy=0;" edge="1" parent="GrARjp8d3IiTH5JFv-NG-1" source="OIzn0KwoGllP4OvUnmKh-1">
            <mxGeometry width="160" relative="1" as="geometry">
              <mxPoint x="260" y="785" as="sourcePoint"/>
              <mxPoint x="730" y="940" as="targetPoint"/>
            </mxGeometry>
            <C4Relationship as="c4"/>
          </mxCell>
        </object>
      </root>
    </mxGraphModel>
  </diagram>
  <diagram id="DiVGcffK1I40zdT2Y28t" name="前端UI交互">
    <mxGraphModel dx="1422" dy="772" grid="1" gridSize="10" guides="1" tooltips="1" connect="1" arrows="1" fold="1" page="1" pageScale="1" pageWidth="827" pageHeight="1169" math="0" shadow="0">
      <root>
        <mxCell id="mifVgnGgQCOWWf_m3Riv-0"/>
        <mxCell id="mifVgnGgQCOWWf_m3Riv-1" parent="mifVgnGgQCOWWf_m3Riv-0"/>
        <object label="&lt;div style=&quot;text-align: left&quot;&gt;前端UI交互&lt;/div&gt;&lt;div style=&quot;text-align: left&quot;&gt;[浏览器]&lt;/div&gt;" placeholders="1" c4Name="前端UI交互" c4Type="ExecutionEnvironment" c4Application="浏览器" id="Mz-MeVqQWawKwb9S_Zb6-1">
          <mxCell style="rounded=1;whiteSpace=wrap;html=1;labelBackgroundColor=none;fillColor=#ffffff;fontColor=#000000;align=left;arcSize=3;strokeColor=#000000;verticalAlign=bottom;" vertex="1" parent="mifVgnGgQCOWWf_m3Riv-1">
            <mxGeometry x="20" y="280" width="780" height="450" as="geometry"/>
            <C4ExecutionEnvironment as="c4"/>
          </mxCell>
        </object>
        <object label="&lt;span&gt;设备面板UI&lt;/span&gt;&lt;div&gt;[Component:&amp;nbsp;&lt;span&gt;zrender canvas &lt;/span&gt;&lt;span&gt;]&lt;/span&gt;&lt;/div&gt;&lt;div&gt;&lt;br&gt;&lt;/div&gt;&lt;div&gt;可视化展示设备&lt;/div&gt;" placeholders="1" c4Name="设备面板UI" c4Type="Component" c4Technology="zrender canvas " c4Description="可视化展示设备" id="Mz-MeVqQWawKwb9S_Zb6-2">
          <mxCell style="rounded=1;whiteSpace=wrap;html=1;labelBackgroundColor=none;fillColor=#dae8fc;fontColor=#000000;align=center;arcSize=7;strokeColor=#6c8ebf;" vertex="1" parent="mifVgnGgQCOWWf_m3Riv-1">
            <mxGeometry x="70" y="330" width="170" height="110" as="geometry"/>
            <C4Component as="c4"/>
          </mxCell>
        </object>
        <object label="&lt;span&gt;elementUI&lt;/span&gt;&lt;div&gt;[Component:&amp;nbsp;&lt;span&gt;html vue element&lt;/span&gt;&lt;span&gt;]&lt;/span&gt;&lt;/div&gt;&lt;div&gt;&lt;br&gt;&lt;/div&gt;&lt;div&gt;elementUI&lt;/div&gt;" placeholders="1" c4Name="elementUI" c4Type="Component" c4Technology="html vue element" c4Description="elementUI" id="Mz-MeVqQWawKwb9S_Zb6-3">
          <mxCell style="rounded=1;whiteSpace=wrap;html=1;labelBackgroundColor=none;fillColor=#dae8fc;fontColor=#000000;align=center;arcSize=7;strokeColor=#6c8ebf;" vertex="1" parent="mifVgnGgQCOWWf_m3Riv-1">
            <mxGeometry x="300" y="330" width="170" height="110" as="geometry"/>
            <C4Component as="c4"/>
          </mxCell>
        </object>
        <object label="&lt;span&gt;数据交互&lt;/span&gt;&lt;div&gt;[Component:&amp;nbsp;&lt;span&gt;axios &lt;/span&gt;&lt;span&gt;]&lt;/span&gt;&lt;/div&gt;&lt;div&gt;&lt;br&gt;&lt;/div&gt;&lt;div&gt;请求数据，局部刷新&lt;/div&gt;" placeholders="1" c4Name="数据交互" c4Type="Component" c4Technology="axios " c4Description="请求数据，局部刷新" id="Mz-MeVqQWawKwb9S_Zb6-4">
          <mxCell style="rounded=1;whiteSpace=wrap;html=1;labelBackgroundColor=none;fillColor=#dae8fc;fontColor=#000000;align=center;arcSize=7;strokeColor=#6c8ebf;" vertex="1" parent="mifVgnGgQCOWWf_m3Riv-1">
            <mxGeometry x="75" y="560" width="170" height="110" as="geometry"/>
            <C4Component as="c4"/>
          </mxCell>
        </object>
        <object label="&lt;span&gt;实时数据通道&lt;/span&gt;&lt;div&gt;[Component:&amp;nbsp;&lt;span&gt;websocket&lt;/span&gt;&lt;span&gt;]&lt;/span&gt;&lt;/div&gt;&lt;div&gt;&lt;br&gt;&lt;/div&gt;&lt;div&gt;流数据&lt;/div&gt;" placeholders="1" c4Name="实时数据通道" c4Type="Component" c4Technology="websocket" c4Description="流数据" id="Mz-MeVqQWawKwb9S_Zb6-5">
          <mxCell style="rounded=1;whiteSpace=wrap;html=1;labelBackgroundColor=none;fillColor=#dae8fc;fontColor=#000000;align=center;arcSize=7;strokeColor=#6c8ebf;" vertex="1" parent="mifVgnGgQCOWWf_m3Riv-1">
            <mxGeometry x="540" y="560" width="170" height="110" as="geometry"/>
            <C4Component as="c4"/>
          </mxCell>
        </object>
        <object label="API业务&lt;br&gt;&lt;div&gt;[Container:&amp;nbsp;java，Spring&amp;nbsp;boot，Spring&amp;nbsp;MVC&lt;span&gt;]&lt;/span&gt;&lt;/div&gt;&lt;div&gt;提供单页web&amp;nbsp;api&amp;nbsp;服务&lt;/div&gt;&lt;div&gt;&lt;br&gt;&lt;/div&gt;" placeholders="1" c4Name="name" c4Type="Container" c4Technology="technology" c4Description="Beschreibung" id="zo496MVqF_Co4S3_VjJZ-0">
          <mxCell style="rounded=1;whiteSpace=wrap;html=1;labelBackgroundColor=none;fillColor=#dae8fc;fontColor=#000000;align=center;arcSize=6;strokeColor=#6c8ebf;" vertex="1" parent="mifVgnGgQCOWWf_m3Riv-1">
            <mxGeometry x="190" y="820" width="160" height="110" as="geometry"/>
            <C4Container as="c4"/>
          </mxCell>
        </object>
        <object label="&lt;span&gt;拓扑图&lt;/span&gt;&lt;div&gt;[Component:&amp;nbsp;&lt;span&gt;html topology&lt;/span&gt;&lt;span&gt;]&lt;/span&gt;&lt;/div&gt;&lt;div&gt;&lt;br&gt;&lt;/div&gt;&lt;div&gt;拓扑图，流程图，动画&lt;/div&gt;" placeholders="1" c4Name="拓扑图" c4Type="Component" c4Technology="html topology" c4Description="拓扑图，流程图，动画" id="zo496MVqF_Co4S3_VjJZ-1">
          <mxCell style="rounded=1;whiteSpace=wrap;html=1;labelBackgroundColor=none;fillColor=#dae8fc;fontColor=#000000;align=center;arcSize=7;strokeColor=#6c8ebf;" vertex="1" parent="mifVgnGgQCOWWf_m3Riv-1">
            <mxGeometry x="550" y="330" width="170" height="110" as="geometry"/>
            <C4Component as="c4"/>
          </mxCell>
        </object>
        <object label="&lt;div style=&quot;text-align: left&quot;&gt;&lt;div style=&quot;text-align: center&quot;&gt;&lt;b&gt;请求数据&lt;/b&gt;&lt;/div&gt;&lt;div style=&quot;text-align: center&quot;&gt;[http]&lt;/div&gt;&lt;/div&gt;" c4Type="Relationship" c4Description="请求数据" c4Technology="http" id="zo496MVqF_Co4S3_VjJZ-2">
          <mxCell style="edgeStyle=none;rounded=0;html=1;entryX=0.5;entryY=0;jettySize=auto;orthogonalLoop=1;strokeColor=#A8A8A8;strokeWidth=2;fontColor=#000000;jumpStyle=none;dashed=1;exitX=0.25;exitY=1;exitDx=0;exitDy=0;entryDx=0;entryDy=0;" edge="1" parent="mifVgnGgQCOWWf_m3Riv-1" source="Mz-MeVqQWawKwb9S_Zb6-4" target="zo496MVqF_Co4S3_VjJZ-0">
            <mxGeometry width="160" relative="1" as="geometry">
              <mxPoint x="130" y="800" as="sourcePoint"/>
              <mxPoint x="290" y="800" as="targetPoint"/>
            </mxGeometry>
            <C4Relationship as="c4"/>
          </mxCell>
        </object>
        <object label="&lt;div style=&quot;text-align: left&quot;&gt;&lt;div style=&quot;text-align: center&quot;&gt;&lt;b&gt;请求数据&lt;/b&gt;&lt;/div&gt;&lt;div style=&quot;text-align: center&quot;&gt;[websocket]&lt;/div&gt;&lt;/div&gt;" c4Type="Relationship" c4Description="请求数据" c4Technology="websocket" id="zo496MVqF_Co4S3_VjJZ-3">
          <mxCell style="edgeStyle=none;rounded=0;html=1;entryX=0.588;entryY=-0.027;jettySize=auto;orthogonalLoop=1;strokeColor=#A8A8A8;strokeWidth=2;fontColor=#000000;jumpStyle=none;dashed=1;exitX=0.5;exitY=1;exitDx=0;exitDy=0;entryDx=0;entryDy=0;entryPerimeter=0;" edge="1" parent="mifVgnGgQCOWWf_m3Riv-1" source="Mz-MeVqQWawKwb9S_Zb6-5" target="zo496MVqF_Co4S3_VjJZ-0">
            <mxGeometry width="160" relative="1" as="geometry">
              <mxPoint x="127.5" y="680" as="sourcePoint"/>
              <mxPoint x="280" y="830" as="targetPoint"/>
            </mxGeometry>
            <C4Relationship as="c4"/>
          </mxCell>
        </object>
        <object label="&lt;div style=&quot;text-align: left&quot;&gt;&lt;div style=&quot;text-align: center&quot;&gt;&lt;b&gt;获取数据&lt;/b&gt;&lt;/div&gt;&lt;div style=&quot;text-align: center&quot;&gt;[JavaScript]&lt;/div&gt;&lt;/div&gt;" c4Type="Relationship" c4Description="获取数据" c4Technology="JavaScript" id="zo496MVqF_Co4S3_VjJZ-4">
          <mxCell style="edgeStyle=none;rounded=0;html=1;entryX=0.5;entryY=0;jettySize=auto;orthogonalLoop=1;strokeColor=#A8A8A8;strokeWidth=2;fontColor=#000000;jumpStyle=none;dashed=1;exitX=0.5;exitY=1;exitDx=0;exitDy=0;entryDx=0;entryDy=0;" edge="1" parent="mifVgnGgQCOWWf_m3Riv-1" source="Mz-MeVqQWawKwb9S_Zb6-2" target="Mz-MeVqQWawKwb9S_Zb6-4">
            <mxGeometry width="160" relative="1" as="geometry">
              <mxPoint x="250" y="500" as="sourcePoint"/>
              <mxPoint x="410" y="500" as="targetPoint"/>
            </mxGeometry>
            <C4Relationship as="c4"/>
          </mxCell>
        </object>
        <object label="&lt;div style=&quot;text-align: left&quot;&gt;&lt;div style=&quot;text-align: center&quot;&gt;&lt;b&gt;获取数据&lt;/b&gt;&lt;/div&gt;&lt;div style=&quot;text-align: center&quot;&gt;[JavaScript  websocket]&lt;/div&gt;&lt;/div&gt;" c4Type="Relationship" c4Description="获取数据" c4Technology="JavaScript  websocket" id="zo496MVqF_Co4S3_VjJZ-5">
          <mxCell style="edgeStyle=none;rounded=0;html=1;entryX=0;entryY=0.75;jettySize=auto;orthogonalLoop=1;strokeColor=#A8A8A8;strokeWidth=2;fontColor=#000000;jumpStyle=none;dashed=1;exitX=0.559;exitY=0.991;exitDx=0;exitDy=0;entryDx=0;entryDy=0;exitPerimeter=0;" edge="1" parent="mifVgnGgQCOWWf_m3Riv-1" source="Mz-MeVqQWawKwb9S_Zb6-2" target="Mz-MeVqQWawKwb9S_Zb6-5">
            <mxGeometry x="-0.0605" y="-4" width="160" relative="1" as="geometry">
              <mxPoint x="165" y="450" as="sourcePoint"/>
              <mxPoint x="170" y="570" as="targetPoint"/>
              <mxPoint as="offset"/>
            </mxGeometry>
            <C4Relationship as="c4"/>
          </mxCell>
        </object>
        <object label="&lt;div style=&quot;text-align: left&quot;&gt;&lt;div style=&quot;text-align: center&quot;&gt;&lt;b&gt;获取数据&lt;/b&gt;&lt;/div&gt;&lt;div style=&quot;text-align: center&quot;&gt;[JavaScript]&lt;/div&gt;&lt;/div&gt;" c4Type="Relationship" c4Description="获取数据" c4Technology="JavaScript" id="zo496MVqF_Co4S3_VjJZ-6">
          <mxCell style="edgeStyle=none;rounded=0;html=1;entryX=0.75;entryY=0;jettySize=auto;orthogonalLoop=1;strokeColor=#A8A8A8;strokeWidth=2;fontColor=#000000;jumpStyle=none;dashed=1;exitX=0.5;exitY=1;exitDx=0;exitDy=0;entryDx=0;entryDy=0;" edge="1" parent="mifVgnGgQCOWWf_m3Riv-1" source="Mz-MeVqQWawKwb9S_Zb6-3" target="Mz-MeVqQWawKwb9S_Zb6-4">
            <mxGeometry width="160" relative="1" as="geometry">
              <mxPoint x="175" y="460" as="sourcePoint"/>
              <mxPoint x="180" y="580" as="targetPoint"/>
            </mxGeometry>
            <C4Relationship as="c4"/>
          </mxCell>
        </object>
        <object label="&lt;div style=&quot;text-align: left&quot;&gt;&lt;div style=&quot;text-align: center&quot;&gt;&lt;b&gt;获取数据&lt;/b&gt;&lt;/div&gt;&lt;div style=&quot;text-align: center&quot;&gt;[JavaScript]&lt;/div&gt;&lt;/div&gt;" c4Type="Relationship" c4Description="获取数据" c4Technology="JavaScript" id="zo496MVqF_Co4S3_VjJZ-7">
          <mxCell style="edgeStyle=none;rounded=0;html=1;entryX=1;entryY=0.25;jettySize=auto;orthogonalLoop=1;strokeColor=#A8A8A8;strokeWidth=2;fontColor=#000000;jumpStyle=none;dashed=1;exitX=0.5;exitY=1;exitDx=0;exitDy=0;entryDx=0;entryDy=0;" edge="1" parent="mifVgnGgQCOWWf_m3Riv-1" source="zo496MVqF_Co4S3_VjJZ-1" target="Mz-MeVqQWawKwb9S_Zb6-4">
            <mxGeometry width="160" relative="1" as="geometry">
              <mxPoint x="185" y="470" as="sourcePoint"/>
              <mxPoint x="190" y="590" as="targetPoint"/>
            </mxGeometry>
            <C4Relationship as="c4"/>
          </mxCell>
        </object>
        <object label="&lt;div style=&quot;text-align: left&quot;&gt;&lt;div style=&quot;text-align: center&quot;&gt;&lt;b&gt;获取数据&lt;/b&gt;&lt;/div&gt;&lt;div style=&quot;text-align: center&quot;&gt;[JavaScript websocket]&lt;/div&gt;&lt;/div&gt;" c4Type="Relationship" c4Description="获取数据" c4Technology="JavaScript websocket" id="zo496MVqF_Co4S3_VjJZ-8">
          <mxCell style="edgeStyle=none;rounded=0;html=1;entryX=0.5;entryY=0;jettySize=auto;orthogonalLoop=1;strokeColor=#A8A8A8;strokeWidth=2;fontColor=#000000;jumpStyle=none;dashed=1;exitX=0.5;exitY=1;exitDx=0;exitDy=0;entryDx=0;entryDy=0;" edge="1" parent="mifVgnGgQCOWWf_m3Riv-1" source="zo496MVqF_Co4S3_VjJZ-1">
            <mxGeometry width="160" relative="1" as="geometry">
              <mxPoint x="175.02999999999997" y="449.01" as="sourcePoint"/>
              <mxPoint x="635" y="570" as="targetPoint"/>
            </mxGeometry>
            <C4Relationship as="c4"/>
          </mxCell>
        </object>
      </root>
    </mxGraphModel>
  </diagram>
  <diagram id="RoUOD4tA7gZBSkqBAs5M" name="web物理组成">
    <mxGraphModel dx="1422" dy="770" grid="1" gridSize="10" guides="1" tooltips="1" connect="1" arrows="1" fold="1" page="1" pageScale="1" pageWidth="827" pageHeight="1169" math="0" shadow="0">
      <root>
        <mxCell id="Gp9P-D-6-I3R5DLJwGpY-0"/>
        <mxCell id="Gp9P-D-6-I3R5DLJwGpY-1" parent="Gp9P-D-6-I3R5DLJwGpY-0"/>
        <mxCell id="Gp9P-D-6-I3R5DLJwGpY-16" value="" style="rounded=0;whiteSpace=wrap;html=1;" vertex="1" parent="Gp9P-D-6-I3R5DLJwGpY-1">
          <mxGeometry x="320" y="510" width="670" height="540" as="geometry"/>
        </mxCell>
        <mxCell id="Gp9P-D-6-I3R5DLJwGpY-52" value="" style="rounded=1;whiteSpace=wrap;html=1;" vertex="1" parent="Gp9P-D-6-I3R5DLJwGpY-1">
          <mxGeometry x="810" y="550" width="140" height="440" as="geometry"/>
        </mxCell>
        <mxCell id="Gp9P-D-6-I3R5DLJwGpY-4" style="edgeStyle=orthogonalEdgeStyle;rounded=0;orthogonalLoop=1;jettySize=auto;html=1;entryX=0;entryY=0;entryDx=0;entryDy=0;entryPerimeter=0;exitX=1;exitY=0;exitDx=0;exitDy=0;exitPerimeter=0;" edge="1" parent="Gp9P-D-6-I3R5DLJwGpY-1" source="Gp9P-D-6-I3R5DLJwGpY-2" target="Gp9P-D-6-I3R5DLJwGpY-3">
          <mxGeometry relative="1" as="geometry">
            <Array as="points">
              <mxPoint x="340" y="303"/>
              <mxPoint x="340" y="303"/>
            </Array>
          </mxGeometry>
        </mxCell>
        <mxCell id="Gp9P-D-6-I3R5DLJwGpY-7" value="发送请求" style="text;html=1;align=center;verticalAlign=middle;resizable=0;points=[];labelBackgroundColor=#ffffff;" vertex="1" connectable="0" parent="Gp9P-D-6-I3R5DLJwGpY-4">
          <mxGeometry x="-0.3602" relative="1" as="geometry">
            <mxPoint as="offset"/>
          </mxGeometry>
        </mxCell>
        <object label="" id="Gp9P-D-6-I3R5DLJwGpY-2">
          <mxCell style="fontColor=#0066CC;verticalAlign=top;verticalLabelPosition=bottom;labelPosition=center;align=center;html=1;outlineConnect=0;fillColor=#CCCCCC;strokeColor=#6881B3;gradientColor=none;gradientDirection=north;strokeWidth=2;shape=mxgraph.networks.terminal;" vertex="1" parent="Gp9P-D-6-I3R5DLJwGpY-1">
            <mxGeometry x="60" y="320" width="80" height="65" as="geometry"/>
          </mxCell>
        </object>
        <mxCell id="Gp9P-D-6-I3R5DLJwGpY-5" style="edgeStyle=orthogonalEdgeStyle;rounded=0;orthogonalLoop=1;jettySize=auto;html=1;exitX=0;exitY=1;exitDx=0;exitDy=0;exitPerimeter=0;entryX=0.93;entryY=1;entryDx=0;entryDy=0;entryPerimeter=0;" edge="1" parent="Gp9P-D-6-I3R5DLJwGpY-1" source="Gp9P-D-6-I3R5DLJwGpY-3" target="Gp9P-D-6-I3R5DLJwGpY-2">
          <mxGeometry relative="1" as="geometry"/>
        </mxCell>
        <mxCell id="Gp9P-D-6-I3R5DLJwGpY-8" value="返回请求的文档" style="text;html=1;align=center;verticalAlign=middle;resizable=0;points=[];labelBackgroundColor=#ffffff;" vertex="1" connectable="0" parent="Gp9P-D-6-I3R5DLJwGpY-5">
          <mxGeometry x="0.0776" y="2" relative="1" as="geometry">
            <mxPoint as="offset"/>
          </mxGeometry>
        </mxCell>
        <mxCell id="Gp9P-D-6-I3R5DLJwGpY-3" value="" style="fontColor=#0066CC;verticalAlign=top;verticalLabelPosition=bottom;labelPosition=center;align=center;html=1;outlineConnect=0;fillColor=#CCCCCC;strokeColor=#6881B3;gradientColor=none;gradientDirection=north;strokeWidth=2;shape=mxgraph.networks.rack;" vertex="1" parent="Gp9P-D-6-I3R5DLJwGpY-1">
          <mxGeometry x="520" y="302.5" width="50" height="100" as="geometry"/>
        </mxCell>
        <mxCell id="Gp9P-D-6-I3R5DLJwGpY-6" value="客户浏览器" style="text;html=1;resizable=0;autosize=1;align=center;verticalAlign=middle;points=[];fillColor=none;strokeColor=none;rounded=0;" vertex="1" parent="Gp9P-D-6-I3R5DLJwGpY-1">
          <mxGeometry x="50" y="402.5" width="80" height="20" as="geometry"/>
        </mxCell>
        <mxCell id="Gp9P-D-6-I3R5DLJwGpY-9" value="WEB服务器" style="text;html=1;resizable=0;autosize=1;align=center;verticalAlign=middle;points=[];fillColor=none;strokeColor=none;rounded=0;" vertex="1" parent="Gp9P-D-6-I3R5DLJwGpY-1">
          <mxGeometry x="510" y="420" width="80" height="20" as="geometry"/>
        </mxCell>
        <mxCell id="Gp9P-D-6-I3R5DLJwGpY-10" value="" style="html=1;shadow=0;dashed=0;align=center;verticalAlign=middle;shape=mxgraph.arrows2.jumpInArrow;dy=15;dx=38;arrowHead=55;rotation=90;" vertex="1" parent="Gp9P-D-6-I3R5DLJwGpY-1">
          <mxGeometry x="556.25" y="316.25" width="100" height="72.5" as="geometry"/>
        </mxCell>
        <mxCell id="Gp9P-D-6-I3R5DLJwGpY-12" value="处理请求" style="text;html=1;resizable=0;autosize=1;align=center;verticalAlign=middle;points=[];fillColor=none;strokeColor=none;rounded=0;" vertex="1" parent="Gp9P-D-6-I3R5DLJwGpY-1">
          <mxGeometry x="640" y="330" width="60" height="20" as="geometry"/>
        </mxCell>
        <mxCell id="Gp9P-D-6-I3R5DLJwGpY-23" style="edgeStyle=orthogonalEdgeStyle;shape=flexArrow;rounded=0;orthogonalLoop=1;jettySize=auto;html=1;exitX=1;exitY=0.5;exitDx=0;exitDy=0;exitPerimeter=0;entryX=0;entryY=0.5;entryDx=0;entryDy=0;entryPerimeter=0;" edge="1" parent="Gp9P-D-6-I3R5DLJwGpY-1" source="Gp9P-D-6-I3R5DLJwGpY-13" target="Gp9P-D-6-I3R5DLJwGpY-19">
          <mxGeometry relative="1" as="geometry"/>
        </mxCell>
        <object label="" id="Gp9P-D-6-I3R5DLJwGpY-13">
          <mxCell style="fontColor=#0066CC;verticalAlign=top;verticalLabelPosition=bottom;labelPosition=center;align=center;html=1;outlineConnect=0;fillColor=#CCCCCC;strokeColor=#6881B3;gradientColor=none;gradientDirection=north;strokeWidth=2;shape=mxgraph.networks.terminal;" vertex="1" parent="Gp9P-D-6-I3R5DLJwGpY-1">
            <mxGeometry x="50" y="602" width="80" height="65" as="geometry"/>
          </mxCell>
        </object>
        <mxCell id="Gp9P-D-6-I3R5DLJwGpY-14" value="客户浏览器" style="text;html=1;resizable=0;autosize=1;align=center;verticalAlign=middle;points=[];fillColor=none;strokeColor=none;rounded=0;" vertex="1" parent="Gp9P-D-6-I3R5DLJwGpY-1">
          <mxGeometry x="40" y="684.5" width="80" height="20" as="geometry"/>
        </mxCell>
        <object label="" id="Gp9P-D-6-I3R5DLJwGpY-17">
          <mxCell style="fontColor=#0066CC;verticalAlign=top;verticalLabelPosition=bottom;labelPosition=center;align=center;html=1;outlineConnect=0;fillColor=#CCCCCC;strokeColor=#6881B3;gradientColor=none;gradientDirection=north;strokeWidth=2;shape=mxgraph.networks.terminal;" vertex="1" parent="Gp9P-D-6-I3R5DLJwGpY-1">
            <mxGeometry x="50" y="830" width="80" height="65" as="geometry"/>
          </mxCell>
        </object>
        <mxCell id="Gp9P-D-6-I3R5DLJwGpY-18" value="客户浏览器" style="text;html=1;resizable=0;autosize=1;align=center;verticalAlign=middle;points=[];fillColor=none;strokeColor=none;rounded=0;" vertex="1" parent="Gp9P-D-6-I3R5DLJwGpY-1">
          <mxGeometry x="40" y="912.5" width="80" height="20" as="geometry"/>
        </mxCell>
        <mxCell id="Gp9P-D-6-I3R5DLJwGpY-33" value="" style="fontColor=#0066CC;verticalAlign=top;verticalLabelPosition=bottom;labelPosition=center;align=center;html=1;outlineConnect=0;fillColor=#CCCCCC;strokeColor=#6881B3;gradientColor=none;gradientDirection=north;strokeWidth=2;shape=mxgraph.networks.rack;" vertex="1" parent="Gp9P-D-6-I3R5DLJwGpY-1">
          <mxGeometry x="860" y="620" width="40" height="100" as="geometry"/>
        </mxCell>
        <mxCell id="Gp9P-D-6-I3R5DLJwGpY-34" value="" style="fontColor=#0066CC;verticalAlign=top;verticalLabelPosition=bottom;labelPosition=center;align=center;html=1;outlineConnect=0;fillColor=#CCCCCC;strokeColor=#6881B3;gradientColor=none;gradientDirection=north;strokeWidth=2;shape=mxgraph.networks.rack;" vertex="1" parent="Gp9P-D-6-I3R5DLJwGpY-1">
          <mxGeometry x="860" y="832.5" width="40" height="100" as="geometry"/>
        </mxCell>
        <mxCell id="Gp9P-D-6-I3R5DLJwGpY-35" value="关系数据库" style="text;html=1;resizable=0;autosize=1;align=center;verticalAlign=middle;points=[];fillColor=none;strokeColor=none;rounded=0;" vertex="1" parent="Gp9P-D-6-I3R5DLJwGpY-1">
          <mxGeometry x="840" y="740" width="80" height="20" as="geometry"/>
        </mxCell>
        <mxCell id="Gp9P-D-6-I3R5DLJwGpY-36" value="Nosql" style="text;html=1;resizable=0;autosize=1;align=center;verticalAlign=middle;points=[];fillColor=none;strokeColor=none;rounded=0;" vertex="1" parent="Gp9P-D-6-I3R5DLJwGpY-1">
          <mxGeometry x="855" y="950" width="50" height="20" as="geometry"/>
        </mxCell>
        <mxCell id="Gp9P-D-6-I3R5DLJwGpY-53" value="获取数据" style="html=1;shadow=0;dashed=0;align=center;verticalAlign=middle;shape=mxgraph.arrows2.arrow;dy=0.6;dx=40;notch=0;" vertex="1" parent="Gp9P-D-6-I3R5DLJwGpY-1">
          <mxGeometry x="720" y="625" width="85" height="43" as="geometry"/>
        </mxCell>
        <mxCell id="Gp9P-D-6-I3R5DLJwGpY-54" value="" style="rounded=1;whiteSpace=wrap;html=1;" vertex="1" parent="Gp9P-D-6-I3R5DLJwGpY-1">
          <mxGeometry x="351.5" y="520" width="368.5" height="520" as="geometry"/>
        </mxCell>
        <mxCell id="Gp9P-D-6-I3R5DLJwGpY-26" style="edgeStyle=orthogonalEdgeStyle;rounded=0;orthogonalLoop=1;jettySize=auto;html=1;exitX=1;exitY=0.5;exitDx=0;exitDy=0;exitPerimeter=0;entryX=0;entryY=0.5;entryDx=0;entryDy=0;entryPerimeter=0;" edge="1" parent="Gp9P-D-6-I3R5DLJwGpY-1" source="Gp9P-D-6-I3R5DLJwGpY-19" target="Gp9P-D-6-I3R5DLJwGpY-20">
          <mxGeometry relative="1" as="geometry"/>
        </mxCell>
        <mxCell id="Gp9P-D-6-I3R5DLJwGpY-27" style="edgeStyle=orthogonalEdgeStyle;rounded=0;orthogonalLoop=1;jettySize=auto;html=1;exitX=1;exitY=0.5;exitDx=0;exitDy=0;exitPerimeter=0;" edge="1" parent="Gp9P-D-6-I3R5DLJwGpY-1" source="Gp9P-D-6-I3R5DLJwGpY-19" target="Gp9P-D-6-I3R5DLJwGpY-21">
          <mxGeometry relative="1" as="geometry"/>
        </mxCell>
        <mxCell id="Gp9P-D-6-I3R5DLJwGpY-28" style="edgeStyle=orthogonalEdgeStyle;rounded=0;orthogonalLoop=1;jettySize=auto;html=1;exitX=1;exitY=0.5;exitDx=0;exitDy=0;exitPerimeter=0;entryX=0;entryY=0.5;entryDx=0;entryDy=0;entryPerimeter=0;" edge="1" parent="Gp9P-D-6-I3R5DLJwGpY-1" source="Gp9P-D-6-I3R5DLJwGpY-19" target="Gp9P-D-6-I3R5DLJwGpY-22">
          <mxGeometry relative="1" as="geometry"/>
        </mxCell>
        <mxCell id="Gp9P-D-6-I3R5DLJwGpY-42" value="反向代理，请求应用数据" style="text;html=1;align=center;verticalAlign=middle;resizable=0;points=[];labelBackgroundColor=#ffffff;" vertex="1" connectable="0" parent="Gp9P-D-6-I3R5DLJwGpY-28">
          <mxGeometry x="-0.5718" y="2" relative="1" as="geometry">
            <mxPoint as="offset"/>
          </mxGeometry>
        </mxCell>
        <mxCell id="Gp9P-D-6-I3R5DLJwGpY-19" value="" style="fontColor=#0066CC;verticalAlign=top;verticalLabelPosition=bottom;labelPosition=center;align=center;html=1;outlineConnect=0;fillColor=#CCCCCC;strokeColor=#6881B3;gradientColor=none;gradientDirection=north;strokeWidth=2;shape=mxgraph.networks.rack;" vertex="1" parent="Gp9P-D-6-I3R5DLJwGpY-1">
          <mxGeometry x="380" y="704.5" width="50" height="100" as="geometry"/>
        </mxCell>
        <mxCell id="Gp9P-D-6-I3R5DLJwGpY-48" style="edgeStyle=orthogonalEdgeStyle;rounded=0;orthogonalLoop=1;jettySize=auto;html=1;exitX=0;exitY=0;exitDx=0;exitDy=0;exitPerimeter=0;entryX=1;entryY=0;entryDx=0;entryDy=0;entryPerimeter=0;dashed=1;" edge="1" parent="Gp9P-D-6-I3R5DLJwGpY-1" source="Gp9P-D-6-I3R5DLJwGpY-20" target="Gp9P-D-6-I3R5DLJwGpY-19">
          <mxGeometry relative="1" as="geometry"/>
        </mxCell>
        <mxCell id="Gp9P-D-6-I3R5DLJwGpY-59" value="返回应用处理后数据" style="text;html=1;align=center;verticalAlign=middle;resizable=0;points=[];labelBackgroundColor=#ffffff;" vertex="1" connectable="0" parent="Gp9P-D-6-I3R5DLJwGpY-48">
          <mxGeometry x="-0.2744" relative="1" as="geometry">
            <mxPoint as="offset"/>
          </mxGeometry>
        </mxCell>
        <mxCell id="Gp9P-D-6-I3R5DLJwGpY-20" value="" style="fontColor=#0066CC;verticalAlign=top;verticalLabelPosition=bottom;labelPosition=center;align=center;html=1;outlineConnect=0;fillColor=#CCCCCC;strokeColor=#6881B3;gradientColor=none;gradientDirection=north;strokeWidth=2;shape=mxgraph.networks.rack;" vertex="1" parent="Gp9P-D-6-I3R5DLJwGpY-1">
          <mxGeometry x="660" y="550" width="40" height="100" as="geometry"/>
        </mxCell>
        <mxCell id="Gp9P-D-6-I3R5DLJwGpY-47" style="edgeStyle=orthogonalEdgeStyle;rounded=0;orthogonalLoop=1;jettySize=auto;html=1;exitX=0;exitY=1;exitDx=0;exitDy=0;exitPerimeter=0;entryX=1;entryY=1;entryDx=0;entryDy=0;entryPerimeter=0;dashed=1;" edge="1" parent="Gp9P-D-6-I3R5DLJwGpY-1" source="Gp9P-D-6-I3R5DLJwGpY-21" target="Gp9P-D-6-I3R5DLJwGpY-19">
          <mxGeometry relative="1" as="geometry"/>
        </mxCell>
        <mxCell id="Gp9P-D-6-I3R5DLJwGpY-58" value="返回应用处理后数据" style="text;html=1;align=center;verticalAlign=middle;resizable=0;points=[];labelBackgroundColor=#ffffff;" vertex="1" connectable="0" parent="Gp9P-D-6-I3R5DLJwGpY-47">
          <mxGeometry x="0.1904" y="4" relative="1" as="geometry">
            <mxPoint as="offset"/>
          </mxGeometry>
        </mxCell>
        <mxCell id="Gp9P-D-6-I3R5DLJwGpY-21" value="" style="fontColor=#0066CC;verticalAlign=top;verticalLabelPosition=bottom;labelPosition=center;align=center;html=1;outlineConnect=0;fillColor=#CCCCCC;strokeColor=#6881B3;gradientColor=none;gradientDirection=north;strokeWidth=2;shape=mxgraph.networks.rack;" vertex="1" parent="Gp9P-D-6-I3R5DLJwGpY-1">
          <mxGeometry x="660" y="705" width="40" height="100" as="geometry"/>
        </mxCell>
        <mxCell id="Gp9P-D-6-I3R5DLJwGpY-49" style="edgeStyle=orthogonalEdgeStyle;rounded=0;orthogonalLoop=1;jettySize=auto;html=1;exitX=0;exitY=0;exitDx=0;exitDy=0;exitPerimeter=0;entryX=1;entryY=1;entryDx=0;entryDy=0;entryPerimeter=0;dashed=1;" edge="1" parent="Gp9P-D-6-I3R5DLJwGpY-1" source="Gp9P-D-6-I3R5DLJwGpY-22" target="Gp9P-D-6-I3R5DLJwGpY-19">
          <mxGeometry relative="1" as="geometry"/>
        </mxCell>
        <mxCell id="Gp9P-D-6-I3R5DLJwGpY-57" value="返回应用处理后数据" style="text;html=1;align=center;verticalAlign=middle;resizable=0;points=[];labelBackgroundColor=#ffffff;" vertex="1" connectable="0" parent="Gp9P-D-6-I3R5DLJwGpY-49">
          <mxGeometry x="0.4378" y="1" relative="1" as="geometry">
            <mxPoint as="offset"/>
          </mxGeometry>
        </mxCell>
        <mxCell id="Gp9P-D-6-I3R5DLJwGpY-22" value="" style="fontColor=#0066CC;verticalAlign=top;verticalLabelPosition=bottom;labelPosition=center;align=center;html=1;outlineConnect=0;fillColor=#CCCCCC;strokeColor=#6881B3;gradientColor=none;gradientDirection=north;strokeWidth=2;shape=mxgraph.networks.rack;" vertex="1" parent="Gp9P-D-6-I3R5DLJwGpY-1">
          <mxGeometry x="660" y="900" width="40" height="100" as="geometry"/>
        </mxCell>
        <mxCell id="Gp9P-D-6-I3R5DLJwGpY-29" value="Nignx" style="text;html=1;resizable=0;autosize=1;align=center;verticalAlign=middle;points=[];fillColor=none;strokeColor=none;rounded=0;" vertex="1" parent="Gp9P-D-6-I3R5DLJwGpY-1">
          <mxGeometry x="370" y="840" width="50" height="20" as="geometry"/>
        </mxCell>
        <mxCell id="Gp9P-D-6-I3R5DLJwGpY-30" value="tomcat" style="text;html=1;resizable=0;autosize=1;align=center;verticalAlign=middle;points=[];fillColor=none;strokeColor=none;rounded=0;" vertex="1" parent="Gp9P-D-6-I3R5DLJwGpY-1">
          <mxGeometry x="660" y="664.5" width="50" height="20" as="geometry"/>
        </mxCell>
        <mxCell id="Gp9P-D-6-I3R5DLJwGpY-31" value="fpm" style="text;html=1;resizable=0;autosize=1;align=center;verticalAlign=middle;points=[];fillColor=none;strokeColor=none;rounded=0;" vertex="1" parent="Gp9P-D-6-I3R5DLJwGpY-1">
          <mxGeometry x="665" y="820" width="40" height="20" as="geometry"/>
        </mxCell>
        <mxCell id="Gp9P-D-6-I3R5DLJwGpY-32" value="IIS" style="text;html=1;resizable=0;autosize=1;align=center;verticalAlign=middle;points=[];fillColor=none;strokeColor=none;rounded=0;" vertex="1" parent="Gp9P-D-6-I3R5DLJwGpY-1">
          <mxGeometry x="670" y="1010" width="30" height="20" as="geometry"/>
        </mxCell>
        <mxCell id="Gp9P-D-6-I3R5DLJwGpY-25" style="edgeStyle=orthogonalEdgeStyle;shape=flexArrow;rounded=0;orthogonalLoop=1;jettySize=auto;html=1;exitX=1;exitY=0.5;exitDx=0;exitDy=0;exitPerimeter=0;entryX=0;entryY=0.5;entryDx=0;entryDy=0;entryPerimeter=0;" edge="1" parent="Gp9P-D-6-I3R5DLJwGpY-1" source="Gp9P-D-6-I3R5DLJwGpY-17" target="Gp9P-D-6-I3R5DLJwGpY-19">
          <mxGeometry relative="1" as="geometry"/>
        </mxCell>
        <mxCell id="Gp9P-D-6-I3R5DLJwGpY-41" value="请求URL" style="text;html=1;align=center;verticalAlign=middle;resizable=0;points=[];labelBackgroundColor=#ffffff;" vertex="1" connectable="0" parent="Gp9P-D-6-I3R5DLJwGpY-25">
          <mxGeometry x="0.3911" relative="1" as="geometry">
            <mxPoint as="offset"/>
          </mxGeometry>
        </mxCell>
        <mxCell id="Gp9P-D-6-I3R5DLJwGpY-45" style="edgeStyle=orthogonalEdgeStyle;shape=flexArrow;rounded=0;orthogonalLoop=1;jettySize=auto;html=1;exitX=0.5;exitY=1;exitDx=0;exitDy=0;exitPerimeter=0;dashed=1;" edge="1" parent="Gp9P-D-6-I3R5DLJwGpY-1" source="Gp9P-D-6-I3R5DLJwGpY-19">
          <mxGeometry relative="1" as="geometry">
            <mxPoint x="260" y="800" as="targetPoint"/>
          </mxGeometry>
        </mxCell>
        <mxCell id="Gp9P-D-6-I3R5DLJwGpY-46" value="返回静态数据" style="text;html=1;align=center;verticalAlign=middle;resizable=0;points=[];labelBackgroundColor=#ffffff;" vertex="1" connectable="0" parent="Gp9P-D-6-I3R5DLJwGpY-45">
          <mxGeometry x="-0.1549" y="2" relative="1" as="geometry">
            <mxPoint as="offset"/>
          </mxGeometry>
        </mxCell>
        <mxCell id="Gp9P-D-6-I3R5DLJwGpY-56" value="返回数据" style="html=1;shadow=0;dashed=0;align=center;verticalAlign=middle;shape=mxgraph.arrows2.arrow;dy=0.6;dx=40;flipH=1;notch=0;" vertex="1" parent="Gp9P-D-6-I3R5DLJwGpY-1">
          <mxGeometry x="720" y="851.5" width="90" height="55" as="geometry"/>
        </mxCell>
      </root>
    </mxGraphModel>
  </diagram>
</mxfile>
